SplineFontDB: 3.2
FontName: Derani
FullName: Derani
FamilyName: Derani
Weight: Regular
Copyright: Copyright Miles Forster 2022
Version: 1.0
ItalicAngle: 0
UnderlinePosition: 88
UnderlineWidth: 58
Ascent: 800
Descent: 200
InvalidEm: 0
sfntRevision: 0x00010000
LayerCount: 2
Layer: 0 1 "Back" 1
Layer: 1 1 "Fore" 0
XUID: [1021 618 -23699139 8853324]
StyleMap: 0x0040
FSType: 4
OS2Version: 2
OS2_WeightWidthSlopeOnly: 0
OS2_UseTypoMetrics: 1
CreationTime: 1670694376
ModificationTime: 1671221198
PfmFamily: 81
TTFWeight: 400
TTFWidth: 5
LineGap: 0
VLineGap: 0
Panose: 0 0 4 0 0 0 0 0 0 0
OS2TypoAscent: 1385
OS2TypoAOffset: 0
OS2TypoDescent: -554
OS2TypoDOffset: 0
OS2TypoLinegap: 0
OS2WinAscent: 1385
OS2WinAOffset: 0
OS2WinDescent: 554
OS2WinDOffset: 0
HheadAscent: 1385
HheadAOffset: 0
HheadDescent: -554
HheadDOffset: 0
OS2SubXSize: 594
OS2SubYSize: 594
OS2SubXOff: 0
OS2SubYOff: -277
OS2SupXSize: 594
OS2SupYSize: 594
OS2SupXOff: 0
OS2SupYOff: 594
OS2StrikeYSize: 59
OS2StrikeYPos: 237
OS2CapHeight: 831
OS2XHeight: 554
OS2Vendor: 'FSTR'
OS2CodePages: 200101ff.cdff0000
OS2UnicodeRanges: 00000001.10000000.00000000.00000000
Lookup: 1 0 0 "WithCartouche" { "WithCartouche"  } ['cart' ('DFLT' <'dflt' > 'latn' <'dflt' > ) ]
Lookup: 1 0 0 "TrimCartouche" { "TrimCartouche" ("_end") } ['cart' ('DFLT' <'dflt' > 'latn' <'dflt' > ) ]
Lookup: 5 8 0 "Connect cartouche start" { "Connect cartouche start"  } ['rclt' ('DFLT' <'dflt' > 'latn' <'dflt' > ) ]
Lookup: 6 8 0 "Connect cartouche medials" { "Connect cartouche medials"  } ['rclt' ('DFLT' <'dflt' > 'latn' <'dflt' > ) ]
Lookup: 5 8 0 "Trim cartouche end" { "Trim cartouche end"  } ['rclt' ('DFLT' <'dflt' > 'latn' <'dflt' > ) ]
Lookup: 260 0 0 "'mark' Mark Positioning in Latin lookup 1" { "'mark' Mark Positioning in Latin lookup 1-1"  } ['mark' ('DFLT' <'dflt' > 'latn' <'dflt' > ) ]

StartChar: other_stop
Encoding: 1 60888 1
Width: 498
VWidth: 1187
GlyphClass: 2
Flags: W
HStem: 0 7G<118 131>
VStem: 249 125<1108 1232> 374 125<-401 1108>
LayerCount: 2
Fore
SplineSet
125 0 m 1,0,-1
 0 138 l 1,1,-1
 125 277 l 1,2,-1
 249 138 l 1,3,-1
 125 0 l 1,0,-1
125 277 m 1,4,-1
 0 415 l 1,5,-1
 125 554 l 1,6,-1
 249 415 l 1,7,-1
 125 277 l 1,4,-1
249 -554 m 1,8,9
 300 -554 300 -554 337 -473 c 256,10,11
 374 -392 374 -392 374 -277 c 2,12,-1
 374 1108 l 1,13,-1
 499 1108 l 1,14,-1
 499 -277 l 2,15,16
 499 -392 499 -392 425 -473 c 256,17,18
 352 -554 352 -554 249 -554 c 1,8,9
249 1108 m 1,19,20
 249 1223 249 1223 322 1304 c 256,21,22
 395 1385 395 1385 499 1385 c 1,23,24
 448 1385 448 1385 411 1304 c 256,25,26
 374 1223 374 1223 374 1108 c 1,27,-1
 249 1108 l 1,19,20
EndSplineSet
EndChar

StartChar: quote
Encoding: 2 60885 2
Width: 498
VWidth: 1187
GlyphClass: 2
Flags: W
HStem: 0 7G<243 256>
VStem: 125 249
LayerCount: 2
Fore
SplineSet
249 0 m 1,0,-1
 125 138 l 1,1,-1
 249 277 l 1,2,-1
 374 138 l 1,3,-1
 249 0 l 1,0,-1
249 277 m 1,4,-1
 125 415 l 1,5,-1
 249 554 l 1,6,-1
 374 415 l 1,7,-1
 249 277 l 1,4,-1
EndSplineSet
Substitution2: "WithCartouche" quote_c
EndChar

StartChar: null
Encoding: 3 60892 3
Width: 716
VWidth: 1187
GlyphClass: 2
Flags: W
HStem: 1108 139<-13 413>
VStem: 62 125<277 401> 187 125<152 277> 311 0<554 554> 467 125<-401 1054>
LayerCount: 2
Fore
SplineSet
62 0 m 1,0,1
 113 0 113 0 150 81 c 128,-1,3
 187 162 187 162 187 277 c 1,4,-1
 311 277 l 1,5,6
 311 162 311 162 238 81 c 128,-1,8
 165 0 165 0 62 0 c 1,0,1
62 277 m 1,9,10
 62 392 62 392 135 473 c 256,11,12
 208 554 208 554 311 554 c 1,13,14
 260 554 260 554 223 473 c 256,15,16
 186 392 186 392 187 277 c 1,17,-1
 62 277 l 1,9,10
343 -554 m 1,18,19
 394 -554 394 -554 431 -473 c 256,20,21
 468 -392 468 -392 467 -277 c 2,22,-1
 467 969 l 2,23,24
 467 1027 467 1027 431 1067 c 256,25,26
 394 1107 394 1107 343 1108 c 2,27,-1
 93 1108 l 2,28,29
 -10 1108 -10 1108 -82 1067 c 0,30,31
 -155 1027 -155 1027 -156 969 c 1,32,33
 -156 1084 -156 1084 -82 1165 c 0,34,35
 -10 1246 -10 1246 93 1247 c 2,36,-1
 343 1247 l 2,37,38
 446 1247 446 1247 519 1165 c 256,39,40
 592 1084 592 1084 592 969 c 2,41,-1
 592 -277 l 2,42,43
 592 -392 592 -392 519 -473 c 256,44,45
 446 -554 446 -554 343 -554 c 1,18,19
EndSplineSet
EndChar

StartChar: diphthong
Encoding: 4 60880 4
Width: 0
VWidth: 1187
GlyphClass: 4
Flags: W
HStem: -277 138<249 623>
VStem: 623 125<-401 -277>
AnchorPoint: "diphthong" 499 -174 mark 0
LayerCount: 2
Fore
SplineSet
499 -554 m 1,0,1
 550 -554 550 -554 587 -473 c 256,2,3
 624 -392 624 -392 623 -277 c 1,4,-1
 249 -277 l 1,5,-1
 249 -138 l 1,6,-1
 748 -138 l 1,7,-1
 748 -277 l 2,8,9
 748 -392 748 -392 675 -473 c 256,10,11
 602 -554 602 -554 499 -554 c 1,0,1
EndSplineSet
EndChar

StartChar: subordination
Encoding: 5 60886 5
Width: 1246
VWidth: 1187
GlyphClass: 2
Flags: W
HStem: 0 138<0 125 249 374 499 623 748 873 997 1122>
VStem: 125 125<-124 0> 374 125<-124 0> 623 125<-124 0> 873 125<-124 0> 1122 125<-124 0>
LayerCount: 2
Fore
SplineSet
0 -277 m 1,0,1
 51 -277 51 -277 88 -196 c 0,2,3
 125 -115 125 -115 125 0 c 1,4,-1
 0 0 l 1,5,-1
 0 138 l 1,6,-1
 1247 138 l 1,7,-1
 1247 0 l 2,8,9
 1247 -115 1247 -115 1174 -196 c 0,10,11
 1101 -277 1101 -277 997 -277 c 1,12,13
 1048 -277 1048 -277 1086 -196 c 0,14,15
 1123 -115 1123 -115 1122 0 c 1,16,-1
 997 0 l 1,17,18
 997 -115 997 -115 924 -196 c 0,19,20
 851 -277 851 -277 748 -277 c 1,21,22
 799 -277 799 -277 836 -196 c 0,23,24
 873 -115 873 -115 873 0 c 1,25,-1
 748 0 l 1,26,27
 748 -115 748 -115 675 -196 c 0,28,29
 602 -277 602 -277 499 -277 c 1,30,31
 550 -277 550 -277 587 -196 c 0,32,33
 624 -115 624 -115 623 0 c 1,34,-1
 499 0 l 1,35,36
 499 -115 499 -115 425 -196 c 0,37,38
 352 -277 352 -277 249 -277 c 1,39,40
 300 -277 300 -277 337 -196 c 0,41,42
 374 -115 374 -115 374 0 c 1,43,-1
 249 0 l 1,44,45
 249 -115 249 -115 176 -196 c 0,46,47
 103 -277 103 -277 0 -277 c 1,0,1
EndSplineSet
EndChar

StartChar: oaomo
Encoding: 6 60868 6
Width: 311
VWidth: 1187
GlyphClass: 2
Flags: W
HStem: 194 167<103 209>
VStem: 81 150<219 339>
LayerCount: 2
Fore
SplineSet
156 194 m 0,0,1
 125 194 125 194 103 218 c 256,2,3
 81 243 81 243 81 277 c 0,4,5
 81 312 81 312 103 336 c 256,6,7
 125 361 125 361 156 360 c 0,8,9
 187 360 187 360 208 336 c 0,10,11
 230 311 230 311 230 277 c 0,12,13
 230 243 230 243 208 218 c 0,14,15
 187 194 187 194 156 194 c 0,0,1
EndSplineSet
Substitution2: "WithCartouche" oaomo_c
EndChar

StartChar: declarative_stop
Encoding: 7 60887 7
Width: 498
VWidth: 1187
GlyphClass: 2
Flags: W
VStem: 249 125<1108 1232> 374 125<-401 1108>
LayerCount: 2
Fore
SplineSet
125 138 m 1,0,-1
 0 277 l 1,1,-1
 125 415 l 1,2,-1
 249 277 l 1,3,-1
 125 138 l 1,0,-1
249 -554 m 1,4,5
 300 -554 300 -554 337 -473 c 256,6,7
 374 -392 374 -392 374 -277 c 2,8,-1
 374 1108 l 1,9,-1
 499 1108 l 1,10,-1
 499 -277 l 2,11,12
 499 -392 499 -392 425 -473 c 256,13,14
 352 -554 352 -554 249 -554 c 1,4,5
249 1108 m 1,15,16
 249 1223 249 1223 322 1304 c 256,17,18
 395 1385 395 1385 499 1385 c 1,19,20
 448 1385 448 1385 411 1304 c 256,21,22
 374 1223 374 1223 374 1108 c 1,23,-1
 249 1108 l 1,15,16
EndSplineSet
EndChar

StartChar: rising
Encoding: 8 60881 8
Width: 0
VWidth: 1187
GlyphClass: 4
Flags: W
HStem: 727 312
VStem: 62 312
AnchorPoint: "tone" 223 605 mark 0
LayerCount: 2
Fore
SplineSet
62 727 m 1,0,-1
 62 866 l 1,1,-1
 374 1039 l 1,2,-1
 374 901 l 1,3,-1
 62 727 l 1,0,-1
EndSplineSet
EndChar

StartChar: prefix
Encoding: 9 60884 9
Width: 311
VWidth: 1187
GlyphClass: 2
Flags: W
HStem: 55 167<103 209> 332 166<103 207>
VStem: 81 150<80 201 357 474>
LayerCount: 2
Fore
SplineSet
156 55 m 0,0,1
 125 55 125 55 103 80 c 256,2,3
 81 105 81 105 81 138 c 0,4,5
 81 173 81 173 103 197 c 256,6,7
 125 222 125 222 156 222 c 0,8,9
 187 222 187 222 208 197 c 0,10,11
 230 172 230 172 230 138 c 0,12,13
 230 104 230 104 208 80 c 0,14,15
 187 55 187 55 156 55 c 0,0,1
156 332 m 0,16,17
 125 332 125 332 103 357 c 256,18,19
 81 382 81 382 81 415 c 0,20,21
 81 450 81 450 103 474 c 256,22,23
 125 499 125 499 156 499 c 0,24,25
 187 499 187 499 208 474 c 0,26,27
 230 449 230 449 230 415 c 0,28,29
 230 381 230 381 208 357 c 0,30,31
 187 332 187 332 156 332 c 0,16,17
EndSplineSet
Substitution2: "WithCartouche" prefix_c
EndChar

StartChar: interrogative_stop
Encoding: 10 60889 10
Width: 498
VWidth: 1187
GlyphClass: 2
Flags: W
VStem: 249 125<1108 1232> 374 125<-401 1108>
LayerCount: 2
Fore
SplineSet
125 -138 m 1,0,-1
 0 0 l 1,1,-1
 1 0 l 1,2,-1
 125 138 l 1,3,-1
 249 1 l 1,4,-1
 249 0 l 1,5,-1
 125 -138 l 1,0,-1
125 138 m 1,6,-1
 0 276 l 1,7,-1
 0 277 l 1,8,-1
 1 277 l 1,9,-1
 125 415 l 1,10,-1
 249 278 l 1,11,-1
 249 277 l 1,12,-1
 248 277 l 1,13,-1
 125 138 l 1,6,-1
125 415 m 1,14,-1
 0 553 l 1,15,-1
 0 554 l 1,16,-1
 125 692 l 1,17,-1
 249 554 l 1,18,-1
 248 554 l 1,19,-1
 125 415 l 1,14,-1
249 -554 m 1,20,21
 300 -554 300 -554 337 -473 c 256,22,23
 374 -392 374 -392 374 -277 c 2,24,-1
 374 1108 l 1,25,-1
 499 1108 l 1,26,-1
 499 -277 l 2,27,28
 499 -392 499 -392 425 -473 c 256,29,30
 352 -554 352 -554 249 -554 c 1,20,21
249 1108 m 1,31,32
 249 1223 249 1223 322 1304 c 256,33,34
 395 1385 395 1385 499 1385 c 1,35,36
 448 1385 448 1385 411 1304 c 256,37,38
 374 1223 374 1223 374 1108 c 1,39,-1
 249 1108 l 1,31,32
EndSplineSet
EndChar

StartChar: cartouche_start
Encoding: 11 60890 11
Width: 218
VWidth: 1187
GlyphClass: 2
Flags: W
HStem: 1108 139<140 467>
LayerCount: 2
Fore
SplineSet
467 1247 m 1,0,-1
 467 1108 l 1,1,-1
 249 1108 l 2,2,3
 146 1108 146 1108 73 1067 c 256,4,5
 0 1027 0 1027 0 969 c 1,6,7
 0 1082 0 1082 73 1165 c 0,8,9
 135 1235 135 1235 218 1247 c 1,10,-1
 467 1247 l 1,0,-1
EndSplineSet
EndChar

StartChar: low_glottal
Encoding: 12 60882 12
Width: 0
VWidth: 1187
GlyphClass: 4
Flags: W
HStem: 901 138<54 481> 1177 0<623 623>
VStem: -125 125<638 846>
AnchorPoint: "tone" 249 554 mark 0
LayerCount: 2
Fore
SplineSet
125 485 m 1,0,1
 21 485 21 485 -51 566 c 0,2,3
 -124 647 -124 647 -125 762 c 0,4,5
 -125 876 -125 876 -51 957 c 0,6,7
 21 1039 21 1039 125 1039 c 2,8,-1
 374 1039 l 2,9,10
 477 1039 477 1039 550 1080 c 0,11,12
 623 1120 623 1120 623 1177 c 1,13,14
 623 1063 623 1063 550 982 c 256,15,16
 477 901 477 901 374 901 c 2,17,-1
 125 901 l 2,18,19
 74 901 74 901 37 859 c 0,20,21
 0 819 0 819 0 762 c 0,22,23
 0 647 0 647 37 566 c 0,24,25
 73 485 73 485 125 485 c 1,0,1
EndSplineSet
EndChar

StartChar: cartouche_end
Encoding: 13 60891 13
Width: 342
VWidth: 1187
GlyphClass: 2
Flags: W
HStem: 1108 139<-214 70>
VStem: 125 125<-401 1053>
LayerCount: 2
Fore
SplineSet
0 -554 m 1,0,1
 51 -554 51 -554 88 -473 c 256,2,3
 125 -392 125 -392 125 -277 c 2,4,-1
 125 969 l 2,5,6
 125 1027 125 1027 88 1067 c 0,7,8
 52 1107 52 1107 0 1108 c 1,9,-1
 -214 1108 l 1,10,11
 -214 1108 -214 1108 -214 1247 c 1,12,13
 -214 1247 -214 1247 0 1247 c 1,14,15
 103 1247 103 1247 176 1165 c 256,16,17
 249 1084 249 1084 249 969 c 2,18,-1
 249 -277 l 2,19,20
 249 -392 249 -392 176 -473 c 256,21,22
 103 -554 103 -554 0 -554 c 1,0,1
EndSplineSet
EndChar

StartChar: bubue
Encoding: 14 60849 14
Width: 498
VWidth: 1187
GlyphClass: 2
Flags: W
HStem: 415 138<177 320>
VStem: 0 125<277 361> 374 125<152 361>
AnchorPoint: "diphthong" 499 -174 basechar 0
AnchorPoint: "tone" 249 554 basechar 0
LayerCount: 2
Fore
SplineSet
249 0 m 1,0,1
 300 0 300 0 337 81 c 0,2,3
 374 162 374 162 374 277 c 0,4,5
 374 335 374 335 337 375 c 0,6,7
 301 415 301 415 249 415 c 256,8,9
 198 415 198 415 161 375 c 256,10,11
 124 335 124 335 125 277 c 1,12,-1
 0 277 l 1,13,14
 0 392 0 392 73 473 c 256,15,16
 146 554 146 554 249 554 c 256,17,18
 352 554 352 554 425 473 c 256,19,20
 498 392 498 392 499 277 c 256,21,22
 499 162 499 162 425 81 c 0,23,24
 352 0 352 0 249 0 c 1,0,1
EndSplineSet
Substitution2: "WithCartouche" bubue_c
EndChar

StartChar: cecoa
Encoding: 15 60856 15
Width: 498
VWidth: 1187
GlyphClass: 2
Flags: W
HStem: 0 138<178 356> 415 138<177 249>
VStem: 0 125<192 361>
AnchorPoint: "diphthong" 499 -174 basechar 0
AnchorPoint: "tone" 249 554 basechar 0
LayerCount: 2
Fore
SplineSet
249 0 m 256,0,1
 146 0 146 0 73 81 c 256,2,3
 0 162 0 162 0 277 c 0,4,5
 0 392 0 392 73 473 c 256,6,7
 146 554 146 554 249 554 c 1,8,-1
 249 415 l 1,9,10
 198 415 198 415 161 375 c 256,11,12
 124 335 124 335 125 277 c 256,13,14
 125 219 125 219 161 179 c 0,15,16
 198 138 198 138 249 138 c 0,17,18
 352 138 352 138 425 179 c 256,19,20
 498 219 498 219 499 277 c 1,21,22
 499 162 499 162 425 81 c 0,23,24
 352 0 352 0 249 0 c 256,0,1
EndSplineSet
Substitution2: "WithCartouche" cecoa_c
EndChar

StartChar: dudeo
Encoding: 16 60853 16
Width: 498
VWidth: 1187
GlyphClass: 2
Flags: W
HStem: 0 138<142 320> 277 104<188 244> 450 104<188 248>
VStem: 93 93<382 449> 374 125<195 361>
AnchorPoint: "tone" 249 554 basechar 0
LayerCount: 2
Fore
SplineSet
337 375 m 257,0,1
 337 375 337 375 337 375 c 257,0,1
218 381 m 0,2,3
 231 381 231 381 240 391 c 256,4,5
 249 401 249 401 249 415 c 256,6,7
 249 430 249 430 240 440 c 0,8,9
 231 450 231 450 218 450 c 0,10,11
 205 450 205 450 196 440 c 0,12,13
 187 430 187 430 187 415 c 256,14,15
 187 400 187 400 196 391 c 0,16,17
 205 381 205 381 218 381 c 0,2,3
249 0 m 0,18,19
 145 0 145 0 72 81 c 0,20,21
 0 162 0 162 0 277 c 1,22,23
 0 219 0 219 72 179 c 0,24,25
 145 139 145 139 249 138 c 0,26,27
 300 138 300 138 337 179 c 0,28,29
 374 219 374 219 374 277 c 256,30,31
 374 335 374 335 337 375 c 1,32,33
 328 343 328 343 306 317 c 0,34,35
 269 277 269 277 218 277 c 256,36,37
 167 277 167 277 130 317 c 256,38,39
 93 357 93 357 93 415 c 256,40,41
 93 473 93 473 130 513 c 256,42,43
 167 553 167 553 218 554 c 0,44,45
 234 554 234 554 249 550 c 1,46,-1
 249 554 l 1,47,48
 352 554 352 554 425 473 c 256,49,50
 498 392 498 392 499 277 c 0,51,52
 499 163 499 163 425 81 c 256,53,54
 352 0 352 0 249 0 c 0,18,19
EndSplineSet
Substitution2: "WithCartouche" dudeo_c
EndChar

StartChar: fofuaq
Encoding: 17 60851 17
Width: 498
VWidth: 1187
GlyphClass: 2
Flags: W
HStem: 415 138<177 320>
VStem: 0 125<277 361> 374 125<-401 360>
AnchorPoint: "diphthong" 499 -174 basechar 0
AnchorPoint: "tone" 249 554 basechar 0
LayerCount: 2
Fore
SplineSet
249 -554 m 1,0,1
 300 -554 300 -554 337 -473 c 256,2,3
 374 -392 374 -392 374 -277 c 2,4,-1
 374 277 l 2,5,6
 374 335 374 335 337 375 c 0,7,8
 301 415 301 415 249 415 c 256,9,10
 198 415 198 415 161 375 c 256,11,12
 124 335 124 335 125 277 c 1,13,-1
 0 277 l 1,14,15
 0 392 0 392 73 473 c 256,16,17
 146 554 146 554 249 554 c 256,18,19
 352 554 352 554 425 473 c 256,20,21
 498 392 498 392 499 277 c 2,22,-1
 499 -277 l 2,23,24
 499 -392 499 -392 425 -473 c 256,25,26
 352 -554 352 -554 249 -554 c 1,0,1
EndSplineSet
Substitution2: "WithCartouche" fofuaq_c
EndChar

StartChar: gugui
Encoding: 18 60866 18
Width: 653
VWidth: 1187
GlyphClass: 2
Flags: W
HStem: 0 138<178 320 552 695> 415 138<177 249>
VStem: 0 125<192 361> 374 125<194 277>
AnchorPoint: "diphthong" 623 -174 basechar 0
AnchorPoint: "tone" 249 554 basechar 0
LayerCount: 2
Fore
SplineSet
436 93 m 257,0,1
 436 93 436 93 436 93 c 257,0,1
249 0 m 256,2,3
 146 0 146 0 73 81 c 256,4,5
 0 162 0 162 0 277 c 0,6,7
 0 392 0 392 73 473 c 256,8,9
 146 554 146 554 249 554 c 1,10,-1
 249 415 l 1,11,12
 198 415 198 415 161 375 c 256,13,14
 124 335 124 335 125 277 c 256,15,16
 125 219 125 219 161 179 c 0,17,18
 198 138 198 138 249 138 c 256,19,20
 300 138 300 138 337 179 c 0,21,22
 374 219 374 219 374 277 c 1,23,-1
 499 277 l 1,24,25
 499 219 499 219 535 179 c 0,26,27
 572 138 572 138 623 138 c 0,28,29
 649 138 649 138 672 149 c 0,30,31
 694 159 694 159 711 179 c 1,32,-1
 800 81 l 1,33,34
 765 43 765 43 720 21 c 0,35,36
 673 0 673 0 623 0 c 0,37,38
 520 0 520 0 447 81 c 0,39,40
 441 87 441 87 436 93 c 1,41,42
 431 87 431 87 425 81 c 0,43,44
 352 0 352 0 249 0 c 256,2,3
EndSplineSet
Substitution2: "WithCartouche" gugui_c
EndChar

StartChar: hehaq
Encoding: 19 60869 19
Width: 498
VWidth: 1187
GlyphClass: 2
Flags: W
HStem: 0 138<249 374 499 855> 277 0<997 997> 415 138<177 320>
VStem: 0 125<277 361> 374 125<-401 0 138 360>
AnchorPoint: "tone" 249 554 basechar 0
LayerCount: 2
Fore
SplineSet
249 -554 m 1,0,1
 300 -554 300 -554 337 -473 c 256,2,3
 374 -392 374 -392 374 -277 c 2,4,-1
 374 0 l 1,5,-1
 249 0 l 1,6,-1
 249 138 l 1,7,-1
 374 138 l 1,8,-1
 374 277 l 2,9,10
 374 335 374 335 337 375 c 0,11,12
 301 415 301 415 249 415 c 256,13,14
 198 415 198 415 161 375 c 256,15,16
 124 335 124 335 125 277 c 1,17,-1
 0 277 l 1,18,19
 0 392 0 392 73 473 c 256,20,21
 146 554 146 554 249 554 c 256,22,23
 352 554 352 554 425 473 c 256,24,25
 498 392 498 392 499 277 c 2,26,-1
 499 138 l 1,27,-1
 748 138 l 2,28,29
 851 138 851 138 924 179 c 256,30,31
 997 219 997 219 997 277 c 1,32,33
 997 162 997 162 924 81 c 0,34,35
 851 0 851 0 748 0 c 2,36,-1
 499 0 l 1,37,-1
 499 -277 l 2,38,39
 499 -392 499 -392 425 -473 c 256,40,41
 352 -554 352 -554 249 -554 c 1,0,1
EndSplineSet
Substitution2: "WithCartouche" hehaq_c
EndChar

StartChar: jujuo
Encoding: 20 60861 20
Width: 872
VWidth: 1187
GlyphClass: 2
Flags: W
HStem: 415 138<177 320 551 694>
VStem: 0 125<277 361> 374 125<277 360> 748 125<152 361>
CounterMasks: 1 70
AnchorPoint: "tone" 249 554 basechar 0
LayerCount: 2
Fore
SplineSet
623 0 m 1,0,1
 674 0 674 0 711 81 c 0,2,3
 748 162 748 162 748 277 c 0,4,5
 748 335 748 335 711 375 c 256,6,7
 674 415 674 415 623 415 c 256,8,9
 572 415 572 415 535 375 c 256,10,11
 498 335 498 335 499 277 c 1,12,-1
 374 277 l 1,13,14
 374 335 374 335 337 375 c 0,15,16
 301 415 301 415 249 415 c 256,17,18
 198 415 198 415 161 375 c 256,19,20
 124 335 124 335 125 277 c 1,21,-1
 0 277 l 1,22,23
 0 392 0 392 73 473 c 256,24,25
 146 554 146 554 249 554 c 256,26,27
 352 554 352 554 425 473 c 0,28,29
 430 467 430 467 436 460 c 1,30,31
 441 466 441 466 447 473 c 0,32,33
 520 554 520 554 623 554 c 256,34,35
 726 554 726 554 800 473 c 256,36,37
 873 392 873 392 873 277 c 256,38,39
 873 162 873 162 800 81 c 0,40,41
 726 0 726 0 623 0 c 1,0,1
EndSplineSet
Substitution2: "WithCartouche" jujuo_c
EndChar

StartChar: kikue
Encoding: 21 60867 21
Width: 498
VWidth: 1187
GlyphClass: 2
Flags: W
HStem: -360 167<197 302> 0 138<178 356> 415 138<177 249>
VStem: 0 125<192 361> 174 150<-335 -219>
AnchorPoint: "tone" 249 554 basechar 0
LayerCount: 2
Fore
SplineSet
249 -360 m 0,0,1
 218 -360 218 -360 196 -336 c 0,2,3
 175 -311 175 -311 174 -277 c 0,4,5
 174 -243 174 -243 196 -218 c 0,6,7
 218 -193 218 -193 249 -194 c 0,8,9
 280 -194 280 -194 302 -218 c 256,10,11
 324 -243 324 -243 324 -277 c 0,12,13
 324 -312 324 -312 302 -336 c 256,14,15
 280 -360 280 -360 249 -360 c 0,0,1
249 0 m 256,16,17
 146 0 146 0 73 81 c 256,18,19
 0 162 0 162 0 277 c 0,20,21
 0 392 0 392 73 473 c 256,22,23
 146 554 146 554 249 554 c 1,24,-1
 249 415 l 1,25,26
 198 415 198 415 161 375 c 256,27,28
 124 335 124 335 125 277 c 256,29,30
 125 219 125 219 161 179 c 0,31,32
 198 138 198 138 249 138 c 0,33,34
 352 138 352 138 425 179 c 256,35,36
 498 219 498 219 499 277 c 1,37,38
 499 162 499 162 425 81 c 0,39,40
 352 0 352 0 249 0 c 256,16,17
EndSplineSet
Substitution2: "WithCartouche" kikue_c
EndChar

StartChar: laoliq
Encoding: 22 60859 22
Width: 997
VWidth: 1187
GlyphClass: 2
Flags: W
HStem: -360 167<569 675> 0 138<466 873> 415 138<177 320 675 821>
VStem: 0 125<277 361> 374 125<153 361> 499 125<277 361> 549 150<-339 -219> 873 125<138 361>
AnchorPoint: "tone" 249 554 basechar 0
LayerCount: 2
Fore
SplineSet
623 -360 m 0,0,1
 592 -360 592 -360 571 -336 c 0,2,3
 549 -311 549 -311 549 -277 c 0,4,5
 549 -243 549 -243 571 -218 c 0,6,7
 592 -193 592 -193 623 -194 c 0,8,9
 654 -194 654 -194 676 -218 c 256,10,11
 698 -243 698 -243 698 -277 c 0,12,13
 698 -312 698 -312 676 -336 c 256,14,15
 654 -360 654 -360 623 -360 c 0,0,1
249 0 m 1,16,-1
 309 33 l 1,17,18
 324 51 324 51 337 81 c 0,19,20
 374 162 374 162 374 277 c 0,21,22
 374 335 374 335 337 375 c 0,23,24
 301 415 301 415 249 415 c 256,25,26
 198 415 198 415 161 375 c 256,27,28
 124 335 124 335 125 277 c 1,29,-1
 0 277 l 1,30,31
 0 392 0 392 73 473 c 256,32,33
 146 554 146 554 249 554 c 256,34,35
 352 554 352 554 425 473 c 256,36,37
 498 392 498 392 499 277 c 0,38,39
 499 200 499 200 466 138 c 1,40,-1
 873 138 l 1,41,-1
 873 277 l 2,42,43
 873 335 873 335 836 375 c 256,44,45
 799 415 799 415 748 415 c 256,46,47
 697 415 697 415 660 375 c 256,48,49
 623 335 623 335 623 277 c 1,50,-1
 499 277 l 1,51,52
 499 392 499 392 572 473 c 256,53,54
 645 554 645 554 748 554 c 256,55,56
 851 554 851 554 924 473 c 256,57,58
 997 392 997 392 997 277 c 2,59,-1
 997 0 l 1,60,-1
 249 0 l 1,16,-1
EndSplineSet
Substitution2: "WithCartouche" laoliq_c
EndChar

StartChar: mamei
Encoding: 23 60848 23
Width: 1495
VWidth: 1187
GlyphClass: 2
Flags: W
HStem: 0 138<466 873 997 1371> 415 138<177 320 675 821 1174 1317>
VStem: 0 125<277 361> 374 125<153 361> 499 125<277 361> 873 125<138 361> 1371 125<-401 0 138 361>
AnchorPoint: "tone" 249 554 basechar 0
LayerCount: 2
Fore
SplineSet
1247 -554 m 1,0,1
 1298 -554 1298 -554 1335 -473 c 256,2,3
 1372 -392 1372 -392 1371 -277 c 2,4,-1
 1371 0 l 1,5,-1
 249 0 l 1,6,-1
 309 33 l 1,7,8
 324 51 324 51 337 81 c 0,9,10
 374 162 374 162 374 277 c 0,11,12
 374 335 374 335 337 375 c 0,13,14
 301 415 301 415 249 415 c 256,15,16
 198 415 198 415 161 375 c 256,17,18
 124 335 124 335 125 277 c 1,19,-1
 0 277 l 1,20,21
 0 392 0 392 73 473 c 256,22,23
 146 554 146 554 249 554 c 256,24,25
 352 554 352 554 425 473 c 256,26,27
 498 392 498 392 499 277 c 0,28,29
 499 200 499 200 466 138 c 1,30,-1
 873 138 l 1,31,-1
 873 277 l 2,32,33
 873 335 873 335 836 375 c 256,34,35
 799 415 799 415 748 415 c 256,36,37
 697 415 697 415 660 375 c 256,38,39
 623 335 623 335 623 277 c 1,40,-1
 499 277 l 1,41,42
 499 392 499 392 572 473 c 256,43,44
 645 554 645 554 748 554 c 256,45,46
 851 554 851 554 924 473 c 256,47,48
 997 392 997 392 997 277 c 2,49,-1
 997 138 l 1,50,-1
 1371 138 l 1,51,-1
 1371 277 l 2,52,53
 1371 335 1371 335 1335 375 c 256,54,55
 1298 415 1298 415 1247 415 c 256,56,57
 1196 415 1196 415 1158 375 c 256,58,59
 1121 335 1121 335 1122 277 c 1,60,-1
 997 277 l 1,61,62
 997 392 997 392 1070 473 c 256,63,64
 1143 554 1143 554 1247 554 c 256,65,66
 1350 554 1350 554 1423 473 c 256,67,68
 1496 392 1496 392 1496 277 c 2,69,-1
 1496 -277 l 2,70,71
 1496 -392 1496 -392 1423 -473 c 256,72,73
 1350 -554 1350 -554 1247 -554 c 1,0,1
EndSplineSet
Substitution2: "WithCartouche" mamei_c
EndChar

StartChar: nanaq
Encoding: 24 60852 24
Width: 498
VWidth: 1187
GlyphClass: 2
Flags: W
HStem: 0 138<178 320> 415 138<177 320> 554 139<249 356>
VStem: 0 125<192 361> 374 125<195 361>
AnchorPoint: "tone" 249 554 basechar 0
LayerCount: 2
Fore
SplineSet
249 138 m 256,0,1
 300 138 300 138 337 179 c 0,2,3
 374 219 374 219 374 277 c 256,4,5
 374 335 374 335 337 375 c 0,6,7
 301 415 301 415 249 415 c 256,8,9
 198 415 198 415 161 375 c 256,10,11
 124 335 124 335 125 277 c 256,12,13
 125 219 125 219 161 179 c 0,14,15
 198 138 198 138 249 138 c 256,0,1
249 0 m 256,16,17
 146 0 146 0 73 81 c 256,18,19
 0 162 0 162 0 277 c 0,20,21
 0 392 0 392 73 473 c 256,22,23
 146 554 146 554 249 554 c 256,24,25
 352 554 352 554 425 473 c 256,26,27
 498 392 498 392 499 277 c 0,28,29
 499 163 499 163 425 81 c 256,30,31
 352 0 352 0 249 0 c 256,16,17
249 554 m 1,32,-1
 249 692 l 1,33,34
 352 692 352 692 425 733 c 256,35,36
 498 773 498 773 499 831 c 1,37,38
 499 716 499 716 425 635 c 256,39,40
 352 554 352 554 249 554 c 1,32,-1
EndSplineSet
Substitution2: "WithCartouche" nanaq_c
EndChar

StartChar: pipoq
Encoding: 25 60850 25
Width: 498
VWidth: 1187
GlyphClass: 2
Flags: W
HStem: 0 138<178 321> 415 138<177 320>
VStem: 0 125<192 361> 374 125<-401 36 194 360>
AnchorPoint: "tone" 249 554 basechar 0
LayerCount: 2
Fore
SplineSet
249 138 m 256,0,1
 300 138 300 138 337 179 c 0,2,3
 374 219 374 219 374 277 c 256,4,5
 374 335 374 335 337 375 c 0,6,7
 301 415 301 415 249 415 c 256,8,9
 198 415 198 415 161 375 c 256,10,11
 124 335 124 335 125 277 c 256,12,13
 125 219 125 219 161 179 c 0,14,15
 198 138 198 138 249 138 c 256,0,1
249 -554 m 1,16,17
 300 -554 300 -554 337 -473 c 256,18,19
 374 -392 374 -392 374 -277 c 2,20,-1
 374 36 l 1,21,22
 318 0 318 0 249 0 c 0,23,24
 146 0 146 0 73 81 c 256,25,26
 0 162 0 162 0 277 c 0,27,28
 0 392 0 392 73 473 c 256,29,30
 146 554 146 554 249 554 c 256,31,32
 352 554 352 554 425 473 c 256,33,34
 498 392 498 392 499 277 c 2,35,-1
 499 -277 l 2,36,37
 499 -392 499 -392 425 -473 c 256,38,39
 352 -554 352 -554 249 -554 c 1,16,17
EndSplineSet
Substitution2: "WithCartouche" pipoq_c
EndChar

StartChar: aqaq
Encoding: 26 60865 26
Width: 498
VWidth: 1187
GlyphClass: 2
Flags: W
HStem: 0 138<178 321> 415 138<177 249>
VStem: 0 125<192 361> 374 125<-401 36 194 277>
AnchorPoint: "tone" 249 554 basechar 0
LayerCount: 2
Fore
SplineSet
249 -554 m 1,0,1
 300 -554 300 -554 337 -473 c 256,2,3
 374 -392 374 -392 374 -277 c 2,4,-1
 374 36 l 1,5,6
 318 0 318 0 249 0 c 0,7,8
 146 0 146 0 73 81 c 256,9,10
 0 162 0 162 0 277 c 0,11,12
 0 392 0 392 73 473 c 256,13,14
 146 554 146 554 249 554 c 1,15,-1
 249 415 l 1,16,17
 198 415 198 415 161 375 c 256,18,19
 124 335 124 335 125 277 c 256,20,21
 125 219 125 219 161 179 c 0,22,23
 198 138 198 138 249 138 c 256,24,25
 300 138 300 138 337 179 c 0,26,27
 374 219 374 219 374 277 c 1,28,-1
 499 277 l 1,29,-1
 499 -277 l 2,30,31
 499 -392 499 -392 425 -473 c 256,32,33
 352 -554 352 -554 249 -554 c 1,0,1
EndSplineSet
Substitution2: "WithCartouche" aqaq_c
EndChar

StartChar: rairua
Encoding: 27 60858 27
Width: 997
VWidth: 1187
GlyphClass: 2
Flags: W
HStem: 0 138<466 873> 415 138<177 320 675 821>
VStem: 0 125<277 361> 374 125<153 361> 499 125<277 361> 873 125<-401 0 138 361>
AnchorPoint: "tone" 249 554 basechar 0
LayerCount: 2
Fore
SplineSet
748 -554 m 1,0,1
 799 -554 799 -554 836 -473 c 256,2,3
 873 -392 873 -392 873 -277 c 2,4,-1
 873 0 l 1,5,-1
 249 0 l 1,6,-1
 309 33 l 1,7,8
 324 51 324 51 337 81 c 0,9,10
 374 162 374 162 374 277 c 0,11,12
 374 335 374 335 337 375 c 0,13,14
 301 415 301 415 249 415 c 256,15,16
 198 415 198 415 161 375 c 256,17,18
 124 335 124 335 125 277 c 1,19,-1
 0 277 l 1,20,21
 0 392 0 392 73 473 c 256,22,23
 146 554 146 554 249 554 c 256,24,25
 352 554 352 554 425 473 c 256,26,27
 498 392 498 392 499 277 c 0,28,29
 499 200 499 200 466 138 c 1,30,-1
 873 138 l 1,31,-1
 873 277 l 2,32,33
 873 335 873 335 836 375 c 256,34,35
 799 415 799 415 748 415 c 256,36,37
 697 415 697 415 660 375 c 256,38,39
 623 335 623 335 623 277 c 1,40,-1
 499 277 l 1,41,42
 499 392 499 392 572 473 c 256,43,44
 645 554 645 554 748 554 c 256,45,46
 851 554 851 554 924 473 c 256,47,48
 997 392 997 392 997 277 c 2,49,-1
 997 -277 l 2,50,51
 997 -392 997 -392 924 -473 c 256,52,53
 851 -554 851 -554 748 -554 c 1,0,1
EndSplineSet
Substitution2: "WithCartouche" rairua_c
EndChar

StartChar: saqseoq
Encoding: 28 60857 28
Width: 498
VWidth: 1187
GlyphClass: 2
Flags: W
HStem: 0 138<178 320> 415 138<177 320>
VStem: 0 125<192 361> 374 125<195 361>
AnchorPoint: "diphthong" 499 -174 basechar 0
AnchorPoint: "tone" 249 554 basechar 0
LayerCount: 2
Fore
SplineSet
249 138 m 256,0,1
 300 138 300 138 337 179 c 0,2,3
 374 219 374 219 374 277 c 256,4,5
 374 335 374 335 337 375 c 0,6,7
 301 415 301 415 249 415 c 256,8,9
 198 415 198 415 161 375 c 256,10,11
 124 335 124 335 125 277 c 256,12,13
 125 219 125 219 161 179 c 0,14,15
 198 138 198 138 249 138 c 256,0,1
249 0 m 256,16,17
 146 0 146 0 73 81 c 256,18,19
 0 162 0 162 0 277 c 128,-1,21
 0 392 0 392 73 473 c 256,22,23
 146 554 146 554 249 554 c 256,24,25
 352 554 352 554 425 473 c 260,26,27
 498 392 498 392 499 277 c 0,28,29
 499 163 499 163 425 81 c 256,30,31
 352 0 352 0 249 0 c 256,16,17
EndSplineSet
Substitution2: "WithCartouche" saqseoq_c
EndChar

StartChar: titieq
Encoding: 29 60854 29
Width: 872
VWidth: 1187
GlyphClass: 2
Flags: W
HStem: 0 138<178 320> 415 138<177 321> 692 138<552 695>
VStem: 0 125<192 361> 374 125<196 360 518 638> 748 125<152 638>
CounterMasks: 1 1c
AnchorPoint: "tone" 249 554 basechar 0
LayerCount: 2
Fore
SplineSet
249 138 m 256,0,1
 300 138 300 138 337 179 c 0,2,3
 374 219 374 219 374 277 c 256,4,5
 374 335 374 335 337 375 c 0,6,7
 301 415 301 415 249 415 c 256,8,9
 198 415 198 415 161 375 c 256,10,11
 124 335 124 335 125 277 c 256,12,13
 125 219 125 219 161 179 c 0,14,15
 198 138 198 138 249 138 c 256,0,1
249 0 m 256,16,17
 146 0 146 0 73 81 c 256,18,19
 0 162 0 162 0 277 c 0,20,21
 0 392 0 392 73 473 c 256,22,23
 146 554 146 554 249 554 c 0,24,25
 318 554 318 554 374 518 c 1,26,-1
 374 554 l 2,27,28
 374 669 374 669 447 750 c 256,29,30
 520 831 520 831 623 831 c 256,31,32
 726 831 726 831 800 750 c 256,33,34
 873 669 873 669 873 554 c 2,35,-1
 873 277 l 2,36,37
 873 162 873 162 800 81 c 0,38,39
 727 0 727 0 623 0 c 1,40,41
 674 0 674 0 711 81 c 0,42,43
 748 162 748 162 748 277 c 2,44,-1
 748 554 l 2,45,46
 748 612 748 612 711 652 c 256,47,48
 674 692 674 692 623 692 c 256,49,50
 572 692 572 692 535 652 c 256,51,52
 498 612 498 612 499 554 c 2,53,-1
 499 277 l 2,54,55
 499 163 499 163 425 81 c 256,56,57
 352 0 352 0 249 0 c 256,16,17
EndSplineSet
Substitution2: "WithCartouche" titieq_c
EndChar

StartChar: veva
Encoding: 30 60864 30
Width: 498
VWidth: 1187
GlyphClass: 2
Flags: W
HStem: 415 138<125 320>
VStem: 0 125<554 678> 374 125<152 361>
AnchorPoint: "tone" 748 554 basechar 0
LayerCount: 2
Fore
SplineSet
249 0 m 1,0,1
 300 0 300 0 337 81 c 0,2,3
 374 162 374 162 374 277 c 0,4,5
 374 335 374 335 337 375 c 0,6,7
 301 415 301 415 249 415 c 2,8,-1
 0 415 l 1,9,-1
 0 554 l 2,10,11
 0 669 0 669 73 750 c 0,12,13
 145 831 145 831 249 831 c 1,14,15
 198 831 198 831 161 750 c 256,16,17
 124 669 124 669 125 554 c 1,18,-1
 249 554 l 2,19,20
 352 554 352 554 425 473 c 256,21,22
 498 392 498 392 499 277 c 256,23,24
 499 162 499 162 425 81 c 0,25,26
 352 0 352 0 249 0 c 1,0,1
EndSplineSet
Substitution2: "WithCartouche" veva_c
EndChar

StartChar: nhanhoq
Encoding: 31 60860 31
Width: 498
VWidth: 1187
GlyphClass: 2
Flags: W
HStem: 0 104<193 244> 173 104<188 248> 415 138<177 320>
VStem: 0 125<277 361> 93 93<109 172> 374 125<192 361>
AnchorPoint: "tone" 249 554 basechar 0
LayerCount: 2
Fore
SplineSet
249 4 m 1024,0,1
218 104 m 0,2,3
 231 104 231 104 240 114 c 0,4,5
 249 124 249 124 249 138 c 0,6,7
 249 153 249 153 240 162 c 0,8,9
 231 172 231 172 218 173 c 0,10,11
 205 173 205 173 196 162 c 0,12,13
 187 152 187 152 187 138 c 0,14,15
 187 124 187 124 196 114 c 0,16,17
 205 104 205 104 218 104 c 0,2,3
218 0 m 0,18,19
 167 0 167 0 130 40 c 0,20,21
 93 81 93 81 93 138 c 0,22,23
 93 196 93 196 130 237 c 0,24,25
 167 277 167 277 218 277 c 256,26,27
 269 277 269 277 306 237 c 0,28,29
 329 211 329 211 337 179 c 1,30,31
 374 219 374 219 374 277 c 0,32,33
 374 335 374 335 337 375 c 0,34,35
 301 415 301 415 249 415 c 256,36,37
 198 415 198 415 161 375 c 256,38,39
 124 335 124 335 125 277 c 1,40,-1
 0 277 l 1,41,42
 0 392 0 392 73 473 c 256,43,44
 146 554 146 554 249 554 c 256,45,46
 352 554 352 554 425 473 c 256,47,48
 498 392 498 392 499 277 c 0,49,50
 499 163 499 163 425 81 c 256,51,52
 352 0 352 0 249 0 c 1,53,-1
 249 4 l 1,54,55
 234 0 234 0 218 0 c 0,18,19
EndSplineSet
Substitution2: "WithCartouche" nhanhoq_c
EndChar

StartChar: shoshia
Encoding: 32 60863 32
Width: 498
VWidth: 1187
GlyphClass: 2
Flags: W
HStem: 0 138<178 321> 415 138<177 356>
VStem: 0 125<192 361> 374 125<-401 36 194 277>
AnchorPoint: "tone" 249 554 basechar 0
LayerCount: 2
Fore
SplineSet
249 -554 m 1,0,1
 300 -554 300 -554 337 -473 c 256,2,3
 374 -392 374 -392 374 -277 c 2,4,-1
 374 36 l 1,5,6
 318 0 318 0 249 0 c 0,7,8
 146 0 146 0 73 81 c 256,9,10
 0 162 0 162 0 277 c 128,-1,12
 0 392 0 392 73 473 c 256,13,14
 146 554 146 554 249 554 c 256,15,16
 352 554 352 554 425 594 c 256,17,18
 498 634 498 634 499 692 c 1,19,20
 499 577 499 577 425 496 c 256,21,22
 352 415 352 415 249 415 c 0,23,24
 198 415 198 415 161 375 c 256,25,26
 124 335 124 335 125 277 c 256,27,28
 125 219 125 219 161 179 c 0,29,30
 198 138 198 138 249 138 c 256,31,32
 300 138 300 138 337 179 c 0,33,34
 374 219 374 219 374 277 c 1,35,-1
 499 277 l 1,36,-1
 499 -277 l 2,37,38
 499 -392 499 -392 425 -473 c 256,39,40
 352 -554 352 -554 249 -554 c 1,0,1
EndSplineSet
Substitution2: "WithCartouche" shoshia_c
EndChar

StartChar: chichao
Encoding: 33 60862 33
Width: 498
VWidth: 1187
GlyphClass: 2
Flags: W
HStem: 0 138<178 356> 415 138<177 356>
VStem: 0 125<192 361>
AnchorPoint: "tone" 249 554 basechar 0
LayerCount: 2
Fore
SplineSet
249 0 m 256,0,1
 146 0 146 0 73 81 c 256,2,3
 0 162 0 162 0 277 c 0,4,5
 0 392 0 392 73 473 c 256,6,7
 146 554 146 554 249 554 c 256,8,9
 352 554 352 554 425 594 c 256,10,11
 498 634 498 634 499 692 c 1,12,13
 499 577 499 577 425 496 c 256,14,15
 352 415 352 415 249 415 c 0,16,17
 198 415 198 415 161 375 c 256,18,19
 124 335 124 335 125 277 c 256,20,21
 125 219 125 219 161 179 c 0,22,23
 198 138 198 138 249 138 c 0,24,25
 352 138 352 138 425 179 c 256,26,27
 498 219 498 219 499 277 c 1,28,29
 499 162 499 162 425 81 c 0,30,31
 352 0 352 0 249 0 c 256,0,1
EndSplineSet
Substitution2: "WithCartouche" chichao_c
EndChar

StartChar: zozeo
Encoding: 34 60855 34
Width: 498
VWidth: 1187
GlyphClass: 2
Flags: W
HStem: 0 138<209 374 499 855> 277 0<997 997> 415 138<177 320>
VStem: 0 125<277 361> 31 125<-401 -55> 374 125<-401 0 138 360>
AnchorPoint: "tone" 249 554 basechar 0
LayerCount: 2
Fore
SplineSet
265 -553 m 257,0,1
 265 -553 265 -553 265 -553 c 257,0,1
265 -552 m 1,2,3
 307 -542 307 -542 337 -473 c 0,4,5
 374 -392 374 -392 374 -277 c 2,6,-1
 374 0 l 1,7,-1
 280 0 l 2,8,9
 229 0 229 0 192 -40 c 0,10,11
 155 -80 155 -80 156 -138 c 2,12,-1
 156 -277 l 2,13,14
 156 -392 156 -392 192 -473 c 0,15,16
 224 -542 224 -542 265 -552 c 1,2,3
249 -554 m 1,17,18
 255 -554 255 -554 260 -553 c 1,19,20
 169 -546 169 -546 104 -473 c 0,21,22
 31 -392 31 -392 31 -277 c 2,23,-1
 31 -138 l 2,24,25
 31 -24 31 -24 104 57 c 0,26,27
 166 126 166 126 249 136 c 1,28,-1
 249 138 l 1,29,-1
 374 138 l 1,30,-1
 374 277 l 2,31,32
 374 335 374 335 337 375 c 0,33,34
 301 415 301 415 249 415 c 256,35,36
 198 415 198 415 161 375 c 256,37,38
 124 335 124 335 125 277 c 1,39,-1
 0 277 l 1,40,41
 0 392 0 392 73 473 c 256,42,43
 146 554 146 554 249 554 c 256,44,45
 352 554 352 554 425 473 c 256,46,47
 498 392 498 392 499 277 c 2,48,-1
 499 138 l 1,49,-1
 748 138 l 2,50,51
 851 138 851 138 924 179 c 256,52,53
 997 219 997 219 997 277 c 1,54,55
 997 162 997 162 924 81 c 0,56,57
 851 0 851 0 748 0 c 2,58,-1
 499 0 l 1,59,-1
 499 -277 l 2,60,61
 499 -392 499 -392 425 -473 c 0,62,63
 359 -546 359 -546 270 -553 c 1,64,65
 275 -554 275 -554 280 -554 c 1,66,67
 273 -554 273 -554 265 -553 c 0,68,69
 256 -554 256 -554 249 -554 c 1,17,18
EndSplineSet
Substitution2: "WithCartouche" zozeo_c
EndChar

StartChar: rising_falling
Encoding: 35 60883 35
Width: 0
VWidth: 1187
GlyphClass: 4
Flags: W
HStem: 901 138<147 289>
VStem: -31 124<762 846> 343 125<638 846>
AnchorPoint: "tone" 276 492 mark 0
LayerCount: 2
Fore
SplineSet
218 485 m 1,0,1
 269 485 269 485 306 566 c 256,2,3
 343 647 343 647 343 762 c 0,4,5
 343 820 343 820 306 859 c 0,6,7
 269 900 269 900 218 901 c 256,8,9
 167 901 167 901 130 859 c 0,10,11
 93 819 93 819 93 762 c 1,12,-1
 -31 762 l 1,13,14
 -31 876 -31 876 42 957 c 0,15,16
 115 1039 115 1039 218 1039 c 256,17,18
 321 1039 321 1039 394 957 c 0,19,20
 467 876 467 876 467 762 c 0,21,22
 467 647 467 647 394 566 c 256,23,24
 321 485 321 485 218 485 c 1,0,1
EndSplineSet
EndChar

StartChar: bubue_c
Encoding: 36 -1 36
Width: 498
VWidth: 1187
GlyphClass: 2
Flags: W
HStem: 415 138<177 320> 1108 139<0 712>
VStem: 0 125<277 361> 374 125<152 361>
AnchorPoint: "diphthong" 499 -174 basechar 0
AnchorPoint: "tone" 249 554 basechar 0
LayerCount: 2
Fore
SplineSet
249 0 m 1,0,1
 300 0 300 0 337 81 c 0,2,3
 374 162 374 162 374 277 c 0,4,5
 374 335 374 335 337 375 c 0,6,7
 301 415 301 415 249 415 c 256,8,9
 198 415 198 415 161 375 c 256,10,11
 124 335 124 335 125 277 c 1,12,-1
 0 277 l 1,13,14
 0 392 0 392 73 473 c 256,15,16
 146 554 146 554 249 554 c 256,17,18
 352 554 352 554 425 473 c 256,19,20
 498 392 498 392 499 277 c 256,21,22
 499 162 499 162 425 81 c 0,23,24
 352 0 352 0 249 0 c 1,0,1
0 1108 m 1,25,-1
 0 1247 l 1,26,-1
 712 1247 l 1,27,-1
 712 1108 l 5,28,-1
 0 1108 l 1,25,-1
EndSplineSet
Substitution2: "TrimCartouche" bubue_c_end
EndChar

StartChar: cecoa_c
Encoding: 37 -1 37
Width: 498
VWidth: 1187
GlyphClass: 2
Flags: W
HStem: 0 138<178 356> 415 138<177 249> 1108 139<0 712>
VStem: 0 125<192 361>
AnchorPoint: "tone" 249 554 basechar 0
AnchorPoint: "diphthong" 499 -174 basechar 0
LayerCount: 2
Fore
SplineSet
249 0 m 256,0,1
 146 0 146 0 73 81 c 256,2,3
 0 162 0 162 0 277 c 0,4,5
 0 392 0 392 73 473 c 256,6,7
 146 554 146 554 249 554 c 1,8,-1
 249 415 l 1,9,10
 198 415 198 415 161 375 c 256,11,12
 124 335 124 335 125 277 c 256,13,14
 125 219 125 219 161 179 c 0,15,16
 198 138 198 138 249 138 c 0,17,18
 352 138 352 138 425 179 c 256,19,20
 498 219 498 219 499 277 c 1,21,22
 499 162 499 162 425 81 c 0,23,24
 352 0 352 0 249 0 c 256,0,1
0 1108 m 5,25,-1
 0 1247 l 5,26,-1
 712 1247 l 1,27,-1
 712 1108 l 5,28,-1
 0 1108 l 5,25,-1
EndSplineSet
Substitution2: "TrimCartouche" cecoa_c_end
EndChar

StartChar: dudeo_c
Encoding: 38 -1 38
Width: 498
VWidth: 1187
GlyphClass: 2
Flags: W
HStem: 0 138<142 320> 277 104<188 244> 450 104<188 248> 1108 139<0 712>
VStem: 93 93<382 449> 374 125<195 361>
AnchorPoint: "tone" 249 554 basechar 0
LayerCount: 2
Fore
SplineSet
337 375 m 257,0,1
 337 375 337 375 337 375 c 257,0,1
218 381 m 0,2,3
 231 381 231 381 240 391 c 256,4,5
 249 401 249 401 249 415 c 256,6,7
 249 430 249 430 240 440 c 0,8,9
 231 450 231 450 218 450 c 0,10,11
 205 450 205 450 196 440 c 0,12,13
 187 430 187 430 187 415 c 256,14,15
 187 400 187 400 196 391 c 0,16,17
 205 381 205 381 218 381 c 0,2,3
249 0 m 0,18,19
 145 0 145 0 72 81 c 0,20,21
 0 162 0 162 0 277 c 1,22,23
 0 219 0 219 72 179 c 0,24,25
 145 139 145 139 249 138 c 0,26,27
 300 138 300 138 337 179 c 0,28,29
 374 219 374 219 374 277 c 256,30,31
 374 335 374 335 337 375 c 1,32,33
 328 343 328 343 306 317 c 0,34,35
 269 277 269 277 218 277 c 256,36,37
 167 277 167 277 130 317 c 256,38,39
 93 357 93 357 93 415 c 256,40,41
 93 473 93 473 130 513 c 256,42,43
 167 553 167 553 218 554 c 0,44,45
 234 554 234 554 249 550 c 1,46,-1
 249 554 l 1,47,48
 352 554 352 554 425 473 c 256,49,50
 498 392 498 392 499 277 c 0,51,52
 499 163 499 163 425 81 c 256,53,54
 352 0 352 0 249 0 c 0,18,19
0 1108 m 5,55,-1
 0 1247 l 5,56,-1
 712 1247 l 1,57,-1
 712 1108 l 5,58,-1
 0 1108 l 5,55,-1
EndSplineSet
Substitution2: "TrimCartouche" dudeo_c_end
EndChar

StartChar: fofuaq_c
Encoding: 39 -1 39
Width: 498
VWidth: 1187
GlyphClass: 2
Flags: W
HStem: 415 138<177 320> 1108 139<0 712>
VStem: 0 125<277 361> 374 125<-401 360>
AnchorPoint: "tone" 249 554 basechar 0
AnchorPoint: "diphthong" 499 -174 basechar 0
LayerCount: 2
Fore
SplineSet
249 -554 m 1,0,1
 300 -554 300 -554 337 -473 c 256,2,3
 374 -392 374 -392 374 -277 c 2,4,-1
 374 277 l 2,5,6
 374 335 374 335 337 375 c 0,7,8
 301 415 301 415 249 415 c 256,9,10
 198 415 198 415 161 375 c 256,11,12
 124 335 124 335 125 277 c 1,13,-1
 0 277 l 1,14,15
 0 392 0 392 73 473 c 256,16,17
 146 554 146 554 249 554 c 256,18,19
 352 554 352 554 425 473 c 256,20,21
 498 392 498 392 499 277 c 2,22,-1
 499 -277 l 2,23,24
 499 -392 499 -392 425 -473 c 256,25,26
 352 -554 352 -554 249 -554 c 1,0,1
0 1108 m 5,27,-1
 0 1247 l 5,28,-1
 712 1247 l 1,29,-1
 712 1108 l 5,30,-1
 0 1108 l 5,27,-1
EndSplineSet
Substitution2: "TrimCartouche" fofuaq_c_end
EndChar

StartChar: gugui_c
Encoding: 40 -1 40
Width: 653
VWidth: 1187
GlyphClass: 2
Flags: W
HStem: 0 138<178 320 552 695> 415 138<177 249> 1108 139<0 868>
VStem: 0 125<192 361> 374 125<194 277>
AnchorPoint: "tone" 249 554 basechar 0
AnchorPoint: "diphthong" 623 -174 basechar 0
LayerCount: 2
Fore
SplineSet
436 93 m 257,0,1
 436 93 436 93 436 93 c 257,0,1
249 0 m 256,2,3
 146 0 146 0 73 81 c 256,4,5
 0 162 0 162 0 277 c 0,6,7
 0 392 0 392 73 473 c 256,8,9
 146 554 146 554 249 554 c 1,10,-1
 249 415 l 1,11,12
 198 415 198 415 161 375 c 256,13,14
 124 335 124 335 125 277 c 256,15,16
 125 219 125 219 161 179 c 0,17,18
 198 138 198 138 249 138 c 256,19,20
 300 138 300 138 337 179 c 0,21,22
 374 219 374 219 374 277 c 1,23,-1
 499 277 l 1,24,25
 499 219 499 219 535 179 c 0,26,27
 572 138 572 138 623 138 c 0,28,29
 649 138 649 138 672 149 c 0,30,31
 694 159 694 159 711 179 c 1,32,-1
 800 81 l 1,33,34
 765 43 765 43 720 21 c 0,35,36
 673 0 673 0 623 0 c 0,37,38
 520 0 520 0 447 81 c 0,39,40
 441 87 441 87 436 93 c 1,41,42
 431 87 431 87 425 81 c 0,43,44
 352 0 352 0 249 0 c 256,2,3
0 1108 m 5,45,-1
 0 1247 l 5,46,-1
 868 1247 l 1,47,-1
 868 1108 l 5,48,-1
 0 1108 l 5,45,-1
EndSplineSet
Substitution2: "TrimCartouche" gugui_c_end
EndChar

StartChar: hehaq_c
Encoding: 41 -1 41
Width: 498
VWidth: 1187
GlyphClass: 2
Flags: W
HStem: 0 138<249 374 499 855> 277 0<997 997> 415 138<177 320> 1108 139<0 712>
VStem: 0 125<277 361> 374 125<-401 0 138 360>
AnchorPoint: "tone" 249 554 basechar 0
LayerCount: 2
Fore
SplineSet
249 -554 m 1,0,1
 300 -554 300 -554 337 -473 c 256,2,3
 374 -392 374 -392 374 -277 c 2,4,-1
 374 0 l 1,5,-1
 249 0 l 1,6,-1
 249 138 l 1,7,-1
 374 138 l 1,8,-1
 374 277 l 2,9,10
 374 335 374 335 337 375 c 0,11,12
 301 415 301 415 249 415 c 256,13,14
 198 415 198 415 161 375 c 256,15,16
 124 335 124 335 125 277 c 1,17,-1
 0 277 l 1,18,19
 0 392 0 392 73 473 c 256,20,21
 146 554 146 554 249 554 c 256,22,23
 352 554 352 554 425 473 c 256,24,25
 498 392 498 392 499 277 c 2,26,-1
 499 138 l 1,27,-1
 748 138 l 2,28,29
 851 138 851 138 924 179 c 256,30,31
 997 219 997 219 997 277 c 1,32,33
 997 162 997 162 924 81 c 0,34,35
 851 0 851 0 748 0 c 2,36,-1
 499 0 l 1,37,-1
 499 -277 l 2,38,39
 499 -392 499 -392 425 -473 c 256,40,41
 352 -554 352 -554 249 -554 c 1,0,1
0 1108 m 5,42,-1
 0 1247 l 5,43,-1
 712 1247 l 1,44,-1
 712 1108 l 5,45,-1
 0 1108 l 5,42,-1
EndSplineSet
Substitution2: "TrimCartouche" hehaq_c_end
EndChar

StartChar: jujuo_c
Encoding: 42 -1 42
Width: 872
VWidth: 1187
GlyphClass: 2
Flags: W
HStem: 415 138<177 320 551 694> 1108 139<0 1086>
VStem: 0 125<277 361> 374 125<277 360> 748 125<152 361>
CounterMasks: 1 38
AnchorPoint: "tone" 249 554 basechar 0
LayerCount: 2
Fore
SplineSet
623 0 m 1,0,1
 674 0 674 0 711 81 c 0,2,3
 748 162 748 162 748 277 c 0,4,5
 748 335 748 335 711 375 c 256,6,7
 674 415 674 415 623 415 c 256,8,9
 572 415 572 415 535 375 c 256,10,11
 498 335 498 335 499 277 c 1,12,-1
 374 277 l 1,13,14
 374 335 374 335 337 375 c 0,15,16
 301 415 301 415 249 415 c 256,17,18
 198 415 198 415 161 375 c 256,19,20
 124 335 124 335 125 277 c 1,21,-1
 0 277 l 1,22,23
 0 392 0 392 73 473 c 256,24,25
 146 554 146 554 249 554 c 256,26,27
 352 554 352 554 425 473 c 0,28,29
 430 467 430 467 436 460 c 1,30,31
 441 466 441 466 447 473 c 0,32,33
 520 554 520 554 623 554 c 256,34,35
 726 554 726 554 800 473 c 256,36,37
 873 392 873 392 873 277 c 256,38,39
 873 162 873 162 800 81 c 0,40,41
 726 0 726 0 623 0 c 1,0,1
0 1108 m 5,42,-1
 0 1247 l 5,43,-1
 1086 1247 l 1,44,-1
 1086 1108 l 5,45,-1
 0 1108 l 5,42,-1
EndSplineSet
Substitution2: "TrimCartouche" jujuo_c_end
EndChar

StartChar: kikue_c
Encoding: 43 -1 43
Width: 498
VWidth: 1187
GlyphClass: 2
Flags: W
HStem: -360 167<197 302> 0 138<178 356> 415 138<177 249> 1108 139<0 712>
VStem: 0 125<192 361> 174 150<-335 -219>
AnchorPoint: "tone" 249 554 basechar 0
LayerCount: 2
Fore
SplineSet
249 -360 m 128,-1,1
 218 -360 218 -360 196 -336 c 0,2,3
 175 -311 175 -311 174 -277 c 0,4,5
 174 -243 174 -243 196 -218 c 128,-1,7
 218 -193 218 -193 249 -194 c 0,8,9
 280 -194 280 -194 302 -218 c 256,10,11
 324 -243 324 -243 324 -277 c 0,12,13
 324 -312 324 -312 302 -336 c 256,14,15
 280 -360 280 -360 249 -360 c 128,-1,1
249 0 m 256,16,17
 146 0 146 0 73 81 c 256,18,19
 0 162 0 162 0 277 c 128,-1,21
 0 392 0 392 73 473 c 256,22,23
 146 554 146 554 249 554 c 1,24,-1
 249 415 l 1,25,26
 198 415 198 415 161 375 c 256,27,28
 124 335 124 335 125 277 c 256,29,30
 125 219 125 219 161 179 c 0,31,32
 198 138 198 138 249 138 c 0,33,34
 352 138 352 138 425 179 c 256,35,36
 498 219 498 219 499 277 c 1,37,38
 499 162 499 162 425 81 c 0,39,40
 352 0 352 0 249 0 c 256,16,17
0 1108 m 5,41,-1
 0 1247 l 5,42,-1
 712 1247 l 1,43,-1
 712 1108 l 5,44,-1
 0 1108 l 5,41,-1
EndSplineSet
Substitution2: "TrimCartouche" kikue_c_end
EndChar

StartChar: laoliq_c
Encoding: 44 -1 44
Width: 997
VWidth: 1187
GlyphClass: 2
Flags: W
HStem: -360 167<569 675> 0 138<466 873> 415 138<177 320 675 821> 1108 139<0 1211>
VStem: 0 125<277 361> 374 125<153 361> 499 125<277 361> 549 150<-339 -219> 873 125<138 361>
AnchorPoint: "tone" 249 554 basechar 0
LayerCount: 2
Fore
SplineSet
623 -360 m 0,0,1
 592 -360 592 -360 571 -336 c 0,2,3
 549 -311 549 -311 549 -277 c 0,4,5
 549 -243 549 -243 571 -218 c 0,6,7
 592 -193 592 -193 623 -194 c 0,8,9
 654 -194 654 -194 676 -218 c 256,10,11
 698 -243 698 -243 698 -277 c 0,12,13
 698 -312 698 -312 676 -336 c 256,14,15
 654 -360 654 -360 623 -360 c 0,0,1
249 0 m 1,16,-1
 309 33 l 1,17,18
 324 51 324 51 337 81 c 0,19,20
 374 162 374 162 374 277 c 0,21,22
 374 335 374 335 337 375 c 0,23,24
 301 415 301 415 249 415 c 256,25,26
 198 415 198 415 161 375 c 256,27,28
 124 335 124 335 125 277 c 1,29,-1
 0 277 l 1,30,31
 0 392 0 392 73 473 c 256,32,33
 146 554 146 554 249 554 c 256,34,35
 352 554 352 554 425 473 c 256,36,37
 498 392 498 392 499 277 c 0,38,39
 499 200 499 200 466 138 c 1,40,-1
 873 138 l 1,41,-1
 873 277 l 2,42,43
 873 335 873 335 836 375 c 256,44,45
 799 415 799 415 748 415 c 256,46,47
 697 415 697 415 660 375 c 256,48,49
 623 335 623 335 623 277 c 1,50,-1
 499 277 l 1,51,52
 499 392 499 392 572 473 c 256,53,54
 645 554 645 554 748 554 c 256,55,56
 851 554 851 554 924 473 c 256,57,58
 997 392 997 392 997 277 c 2,59,-1
 997 0 l 1,60,-1
 249 0 l 1,16,-1
0 1108 m 5,61,-1
 0 1247 l 5,62,-1
 1211 1247 l 1,63,-1
 1211 1108 l 5,64,-1
 0 1108 l 5,61,-1
EndSplineSet
Substitution2: "TrimCartouche" laoliq_c_end
EndChar

StartChar: mamei_c
Encoding: 45 -1 45
Width: 1495
VWidth: 1187
GlyphClass: 2
Flags: W
HStem: 0 138<466 873 997 1371> 415 138<177 320 675 821 1174 1317> 1108 139<0 1710>
VStem: 0 125<277 361> 374 125<153 361> 499 125<277 361> 873 125<138 361> 1371 125<-401 0 138 361>
AnchorPoint: "tone" 249 554 basechar 0
LayerCount: 2
Fore
SplineSet
1247 -554 m 1,0,1
 1298 -554 1298 -554 1335 -473 c 256,2,3
 1372 -392 1372 -392 1371 -277 c 2,4,-1
 1371 0 l 1,5,-1
 249 0 l 1,6,-1
 309 33 l 1,7,8
 324 51 324 51 337 81 c 0,9,10
 374 162 374 162 374 277 c 0,11,12
 374 335 374 335 337 375 c 0,13,14
 301 415 301 415 249 415 c 256,15,16
 198 415 198 415 161 375 c 256,17,18
 124 335 124 335 125 277 c 1,19,-1
 0 277 l 1,20,21
 0 392 0 392 73 473 c 256,22,23
 146 554 146 554 249 554 c 256,24,25
 352 554 352 554 425 473 c 256,26,27
 498 392 498 392 499 277 c 0,28,29
 499 200 499 200 466 138 c 1,30,-1
 873 138 l 1,31,-1
 873 277 l 2,32,33
 873 335 873 335 836 375 c 256,34,35
 799 415 799 415 748 415 c 256,36,37
 697 415 697 415 660 375 c 256,38,39
 623 335 623 335 623 277 c 1,40,-1
 499 277 l 1,41,42
 499 392 499 392 572 473 c 256,43,44
 645 554 645 554 748 554 c 256,45,46
 851 554 851 554 924 473 c 256,47,48
 997 392 997 392 997 277 c 2,49,-1
 997 138 l 1,50,-1
 1371 138 l 1,51,-1
 1371 277 l 2,52,53
 1371 335 1371 335 1335 375 c 256,54,55
 1298 415 1298 415 1247 415 c 256,56,57
 1196 415 1196 415 1158 375 c 256,58,59
 1121 335 1121 335 1122 277 c 1,60,-1
 997 277 l 1,61,62
 997 392 997 392 1070 473 c 256,63,64
 1143 554 1143 554 1247 554 c 256,65,66
 1350 554 1350 554 1423 473 c 256,67,68
 1496 392 1496 392 1496 277 c 2,69,-1
 1496 -277 l 2,70,71
 1496 -392 1496 -392 1423 -473 c 256,72,73
 1350 -554 1350 -554 1247 -554 c 1,0,1
0 1108 m 5,74,-1
 0 1247 l 5,75,-1
 1710 1247 l 1,76,-1
 1710 1108 l 5,77,-1
 0 1108 l 5,74,-1
EndSplineSet
Substitution2: "TrimCartouche" mamei_c_end
EndChar

StartChar: nanaq_c
Encoding: 46 -1 46
Width: 498
VWidth: 1187
GlyphClass: 2
Flags: W
HStem: 0 138<178 320> 415 138<177 320> 554 139<249 356> 1108 139<0 712>
VStem: 0 125<192 361> 374 125<195 361>
AnchorPoint: "tone" 249 554 basechar 0
LayerCount: 2
Fore
SplineSet
249 138 m 256,0,1
 300 138 300 138 337 179 c 0,2,3
 374 219 374 219 374 277 c 256,4,5
 374 335 374 335 337 375 c 0,6,7
 301 415 301 415 249 415 c 256,8,9
 198 415 198 415 161 375 c 256,10,11
 124 335 124 335 125 277 c 256,12,13
 125 219 125 219 161 179 c 0,14,15
 198 138 198 138 249 138 c 256,0,1
249 0 m 256,16,17
 146 0 146 0 73 81 c 256,18,19
 0 162 0 162 0 277 c 0,20,21
 0 392 0 392 73 473 c 256,22,23
 146 554 146 554 249 554 c 256,24,25
 352 554 352 554 425 473 c 256,26,27
 498 392 498 392 499 277 c 0,28,29
 499 163 499 163 425 81 c 256,30,31
 352 0 352 0 249 0 c 256,16,17
249 554 m 1,32,-1
 249 692 l 1,33,34
 352 692 352 692 425 733 c 256,35,36
 498 773 498 773 499 831 c 1,37,38
 499 716 499 716 425 635 c 256,39,40
 352 554 352 554 249 554 c 1,32,-1
0 1108 m 5,41,-1
 0 1247 l 5,42,-1
 712 1247 l 1,43,-1
 712 1108 l 5,44,-1
 0 1108 l 5,41,-1
EndSplineSet
Substitution2: "TrimCartouche" nanaq_c_end
EndChar

StartChar: pipoq_c
Encoding: 47 -1 47
Width: 498
VWidth: 1187
GlyphClass: 2
Flags: W
HStem: 0 138<178 321> 415 138<177 320> 1108 139<0 712>
VStem: 0 125<192 361> 374 125<-401 36 194 360>
AnchorPoint: "tone" 249 554 basechar 0
LayerCount: 2
Fore
SplineSet
249 138 m 256,0,1
 300 138 300 138 337 179 c 0,2,3
 374 219 374 219 374 277 c 256,4,5
 374 335 374 335 337 375 c 0,6,7
 301 415 301 415 249 415 c 256,8,9
 198 415 198 415 161 375 c 256,10,11
 124 335 124 335 125 277 c 256,12,13
 125 219 125 219 161 179 c 0,14,15
 198 138 198 138 249 138 c 256,0,1
249 -554 m 1,16,17
 300 -554 300 -554 337 -473 c 256,18,19
 374 -392 374 -392 374 -277 c 2,20,-1
 374 36 l 1,21,22
 318 0 318 0 249 0 c 0,23,24
 146 0 146 0 73 81 c 256,25,26
 0 162 0 162 0 277 c 0,27,28
 0 392 0 392 73 473 c 256,29,30
 146 554 146 554 249 554 c 256,31,32
 352 554 352 554 425 473 c 256,33,34
 498 392 498 392 499 277 c 2,35,-1
 499 -277 l 2,36,37
 499 -392 499 -392 425 -473 c 256,38,39
 352 -554 352 -554 249 -554 c 1,16,17
0 1108 m 5,40,-1
 0 1247 l 5,41,-1
 712 1247 l 1,42,-1
 712 1108 l 5,43,-1
 0 1108 l 5,40,-1
EndSplineSet
Substitution2: "TrimCartouche" pipoq_c_end
EndChar

StartChar: aqaq_c
Encoding: 48 -1 48
Width: 498
VWidth: 1187
GlyphClass: 2
Flags: W
HStem: 0 138<178 321> 415 138<177 249> 1108 139<0 712>
VStem: 0 125<192 361> 374 125<-401 36 194 277>
AnchorPoint: "tone" 249 554 basechar 0
LayerCount: 2
Fore
SplineSet
249 -554 m 1,0,1
 300 -554 300 -554 337 -473 c 256,2,3
 374 -392 374 -392 374 -277 c 2,4,-1
 374 36 l 1,5,6
 318 0 318 0 249 0 c 0,7,8
 146 0 146 0 73 81 c 256,9,10
 0 162 0 162 0 277 c 0,11,12
 0 392 0 392 73 473 c 256,13,14
 146 554 146 554 249 554 c 1,15,-1
 249 415 l 1,16,17
 198 415 198 415 161 375 c 256,18,19
 124 335 124 335 125 277 c 256,20,21
 125 219 125 219 161 179 c 0,22,23
 198 138 198 138 249 138 c 256,24,25
 300 138 300 138 337 179 c 0,26,27
 374 219 374 219 374 277 c 1,28,-1
 499 277 l 1,29,-1
 499 -277 l 2,30,31
 499 -392 499 -392 425 -473 c 256,32,33
 352 -554 352 -554 249 -554 c 1,0,1
0 1108 m 5,34,-1
 0 1247 l 5,35,-1
 712 1247 l 1,36,-1
 712 1108 l 5,37,-1
 0 1108 l 5,34,-1
EndSplineSet
Substitution2: "TrimCartouche" aqaq_c_end
EndChar

StartChar: rairua_c
Encoding: 49 -1 49
Width: 997
VWidth: 1187
GlyphClass: 2
Flags: W
HStem: 0 138<466 873> 415 138<177 320 675 821> 1108 139<0 1211>
VStem: 0 125<277 361> 374 125<153 361> 499 125<277 361> 873 125<-401 0 138 361>
AnchorPoint: "tone" 249 554 basechar 0
LayerCount: 2
Fore
SplineSet
748 -554 m 1,0,1
 799 -554 799 -554 836 -473 c 256,2,3
 873 -392 873 -392 873 -277 c 2,4,-1
 873 0 l 1,5,-1
 249 0 l 1,6,-1
 309 33 l 1,7,8
 324 51 324 51 337 81 c 0,9,10
 374 162 374 162 374 277 c 0,11,12
 374 335 374 335 337 375 c 0,13,14
 301 415 301 415 249 415 c 256,15,16
 198 415 198 415 161 375 c 256,17,18
 124 335 124 335 125 277 c 1,19,-1
 0 277 l 1,20,21
 0 392 0 392 73 473 c 256,22,23
 146 554 146 554 249 554 c 256,24,25
 352 554 352 554 425 473 c 256,26,27
 498 392 498 392 499 277 c 0,28,29
 499 200 499 200 466 138 c 1,30,-1
 873 138 l 1,31,-1
 873 277 l 2,32,33
 873 335 873 335 836 375 c 256,34,35
 799 415 799 415 748 415 c 256,36,37
 697 415 697 415 660 375 c 256,38,39
 623 335 623 335 623 277 c 1,40,-1
 499 277 l 1,41,42
 499 392 499 392 572 473 c 256,43,44
 645 554 645 554 748 554 c 256,45,46
 851 554 851 554 924 473 c 256,47,48
 997 392 997 392 997 277 c 2,49,-1
 997 -277 l 2,50,51
 997 -392 997 -392 924 -473 c 256,52,53
 851 -554 851 -554 748 -554 c 1,0,1
0 1108 m 5,54,-1
 0 1247 l 5,55,-1
 1211 1247 l 1,56,-1
 1211 1108 l 5,57,-1
 0 1108 l 5,54,-1
EndSplineSet
Substitution2: "TrimCartouche" rairua_c_end
EndChar

StartChar: saqseoq_c
Encoding: 50 -1 50
Width: 498
VWidth: 1187
GlyphClass: 2
Flags: W
HStem: 0 138<178 320> 415 138<177 320> 1108 139<0 712>
VStem: 0 125<192 361> 374 125<195 361>
AnchorPoint: "tone" 249 554 basechar 0
AnchorPoint: "diphthong" 499 -174 basechar 0
LayerCount: 2
Fore
SplineSet
249 138 m 256,0,1
 300 138 300 138 337 179 c 0,2,3
 374 219 374 219 374 277 c 256,4,5
 374 335 374 335 337 375 c 0,6,7
 301 415 301 415 249 415 c 256,8,9
 198 415 198 415 161 375 c 256,10,11
 124 335 124 335 125 277 c 256,12,13
 125 219 125 219 161 179 c 0,14,15
 198 138 198 138 249 138 c 256,0,1
249 0 m 256,16,17
 146 0 146 0 73 81 c 256,18,19
 0 162 0 162 0 277 c 0,20,21
 0 392 0 392 73 473 c 256,22,23
 146 554 146 554 249 554 c 256,24,25
 352 554 352 554 425 473 c 256,26,27
 498 392 498 392 499 277 c 0,28,29
 499 163 499 163 425 81 c 256,30,31
 352 0 352 0 249 0 c 256,16,17
0 1108 m 5,32,-1
 0 1247 l 5,33,-1
 712 1247 l 1,34,-1
 712 1108 l 5,35,-1
 0 1108 l 5,32,-1
EndSplineSet
Substitution2: "TrimCartouche" saqseoq_c_end
EndChar

StartChar: titieq_c
Encoding: 51 -1 51
Width: 872
VWidth: 1187
GlyphClass: 2
Flags: W
HStem: 0 138<178 320> 415 138<177 321> 692 138<552 695> 1108 139<0 1086>
VStem: 0 125<192 361> 374 125<196 360 518 638> 748 125<152 638>
CounterMasks: 1 0e
AnchorPoint: "tone" 249 554 basechar 0
LayerCount: 2
Fore
SplineSet
249 138 m 256,0,1
 300 138 300 138 337 179 c 0,2,3
 374 219 374 219 374 277 c 256,4,5
 374 335 374 335 337 375 c 0,6,7
 301 415 301 415 249 415 c 256,8,9
 198 415 198 415 161 375 c 256,10,11
 124 335 124 335 125 277 c 256,12,13
 125 219 125 219 161 179 c 0,14,15
 198 138 198 138 249 138 c 256,0,1
249 0 m 256,16,17
 146 0 146 0 73 81 c 256,18,19
 0 162 0 162 0 277 c 128,-1,21
 0 392 0 392 73 473 c 256,22,23
 146 554 146 554 249 554 c 0,24,25
 318 554 318 554 374 518 c 1,26,-1
 374 554 l 2,27,28
 374 669 374 669 447 750 c 256,29,30
 520 831 520 831 623 831 c 256,31,32
 726 831 726 831 800 750 c 256,33,34
 873 669 873 669 873 554 c 2,35,-1
 873 277 l 2,36,37
 873 162 873 162 800 81 c 128,-1,39
 727 0 727 0 623 0 c 1,40,41
 674 0 674 0 711 81 c 128,-1,43
 748 162 748 162 748 277 c 2,44,-1
 748 554 l 2,45,46
 748 612 748 612 711 652 c 256,47,48
 674 692 674 692 623 692 c 256,49,50
 572 692 572 692 535 652 c 256,51,52
 498 612 498 612 499 554 c 2,53,-1
 499 277 l 2,54,55
 499 163 499 163 425 81 c 256,56,57
 352 0 352 0 249 0 c 256,16,17
0 1108 m 5,58,-1
 0 1247 l 5,59,-1
 1086 1247 l 1,60,-1
 1086 1108 l 5,61,-1
 0 1108 l 5,58,-1
EndSplineSet
Substitution2: "TrimCartouche" titieq_c_end
EndChar

StartChar: veva_c
Encoding: 52 -1 52
Width: 498
VWidth: 1187
GlyphClass: 2
Flags: W
HStem: 415 138<125 320> 1108 139<0 712>
VStem: 0 125<554 678> 374 125<152 361>
AnchorPoint: "tone" 748 554 basechar 0
LayerCount: 2
Fore
SplineSet
249 0 m 1,0,1
 300 0 300 0 337 81 c 0,2,3
 374 162 374 162 374 277 c 0,4,5
 374 335 374 335 337 375 c 0,6,7
 301 415 301 415 249 415 c 2,8,-1
 0 415 l 1,9,-1
 0 554 l 2,10,11
 0 669 0 669 73 750 c 0,12,13
 145 831 145 831 249 831 c 1,14,15
 198 831 198 831 161 750 c 256,16,17
 124 669 124 669 125 554 c 1,18,-1
 249 554 l 2,19,20
 352 554 352 554 425 473 c 256,21,22
 498 392 498 392 499 277 c 256,23,24
 499 162 499 162 425 81 c 0,25,26
 352 0 352 0 249 0 c 1,0,1
0 1108 m 5,27,-1
 0 1247 l 5,28,-1
 712 1247 l 1,29,-1
 712 1108 l 5,30,-1
 0 1108 l 5,27,-1
EndSplineSet
Substitution2: "TrimCartouche" veva_c_end
EndChar

StartChar: nhanhoq_c
Encoding: 53 -1 53
Width: 498
VWidth: 1187
GlyphClass: 2
Flags: W
HStem: 0 104<193 244> 173 104<188 248> 415 138<177 320> 1108 139<0 712>
VStem: 0 125<277 361> 93 93<109 172> 374 125<192 361>
AnchorPoint: "tone" 249 554 basechar 0
LayerCount: 2
Fore
SplineSet
249 4 m 1024,0,1
218 104 m 0,2,3
 231 104 231 104 240 114 c 0,4,5
 249 124 249 124 249 138 c 0,6,7
 249 153 249 153 240 162 c 0,8,9
 231 172 231 172 218 173 c 0,10,11
 205 173 205 173 196 162 c 0,12,13
 187 152 187 152 187 138 c 0,14,15
 187 124 187 124 196 114 c 0,16,17
 205 104 205 104 218 104 c 0,2,3
218 0 m 0,18,19
 167 0 167 0 130 40 c 0,20,21
 93 81 93 81 93 138 c 0,22,23
 93 196 93 196 130 237 c 0,24,25
 167 277 167 277 218 277 c 256,26,27
 269 277 269 277 306 237 c 0,28,29
 329 211 329 211 337 179 c 1,30,31
 374 219 374 219 374 277 c 0,32,33
 374 335 374 335 337 375 c 0,34,35
 301 415 301 415 249 415 c 256,36,37
 198 415 198 415 161 375 c 256,38,39
 124 335 124 335 125 277 c 1,40,-1
 0 277 l 1,41,42
 0 392 0 392 73 473 c 256,43,44
 146 554 146 554 249 554 c 256,45,46
 352 554 352 554 425 473 c 256,47,48
 498 392 498 392 499 277 c 0,49,50
 499 163 499 163 425 81 c 256,51,52
 352 0 352 0 249 0 c 1,53,-1
 249 4 l 1,54,55
 234 0 234 0 218 0 c 0,18,19
0 1108 m 5,56,-1
 0 1247 l 5,57,-1
 712 1247 l 1,58,-1
 712 1108 l 5,59,-1
 0 1108 l 5,56,-1
EndSplineSet
Substitution2: "TrimCartouche" nhanhoq_c_end
EndChar

StartChar: shoshia_c
Encoding: 54 -1 54
Width: 498
VWidth: 1187
GlyphClass: 2
Flags: W
HStem: 0 138<178 321> 415 138<177 356> 1108 139<0 712>
VStem: 0 125<192 361> 374 125<-401 36 194 277>
AnchorPoint: "tone" 249 554 basechar 0
LayerCount: 2
Fore
SplineSet
249 -554 m 1,0,1
 300 -554 300 -554 337 -473 c 256,2,3
 374 -392 374 -392 374 -277 c 2,4,-1
 374 36 l 1,5,6
 318 0 318 0 249 0 c 0,7,8
 146 0 146 0 73 81 c 256,9,10
 0 162 0 162 0 277 c 0,11,12
 0 392 0 392 73 473 c 256,13,14
 146 554 146 554 249 554 c 256,15,16
 352 554 352 554 425 594 c 256,17,18
 498 634 498 634 499 692 c 1,19,20
 499 577 499 577 425 496 c 256,21,22
 352 415 352 415 249 415 c 0,23,24
 198 415 198 415 161 375 c 256,25,26
 124 335 124 335 125 277 c 256,27,28
 125 219 125 219 161 179 c 0,29,30
 198 138 198 138 249 138 c 256,31,32
 300 138 300 138 337 179 c 0,33,34
 374 219 374 219 374 277 c 1,35,-1
 499 277 l 1,36,-1
 499 -277 l 2,37,38
 499 -392 499 -392 425 -473 c 256,39,40
 352 -554 352 -554 249 -554 c 1,0,1
0 1108 m 5,41,-1
 0 1247 l 5,42,-1
 712 1247 l 1,43,-1
 712 1108 l 5,44,-1
 0 1108 l 5,41,-1
EndSplineSet
Substitution2: "TrimCartouche" shoshia_c_end
EndChar

StartChar: chichao_c
Encoding: 55 -1 55
Width: 498
VWidth: 1187
GlyphClass: 2
Flags: W
HStem: 0 138<178 356> 415 138<177 356> 1108 139<0 712>
VStem: 0 125<192 361>
AnchorPoint: "tone" 249 554 basechar 0
LayerCount: 2
Fore
SplineSet
249 0 m 256,0,1
 146 0 146 0 73 81 c 256,2,3
 0 162 0 162 0 277 c 0,4,5
 0 392 0 392 73 473 c 256,6,7
 146 554 146 554 249 554 c 256,8,9
 352 554 352 554 425 594 c 256,10,11
 498 634 498 634 499 692 c 1,12,13
 499 577 499 577 425 496 c 256,14,15
 352 415 352 415 249 415 c 0,16,17
 198 415 198 415 161 375 c 256,18,19
 124 335 124 335 125 277 c 256,20,21
 125 219 125 219 161 179 c 0,22,23
 198 138 198 138 249 138 c 0,24,25
 352 138 352 138 425 179 c 256,26,27
 498 219 498 219 499 277 c 1,28,29
 499 162 499 162 425 81 c 0,30,31
 352 0 352 0 249 0 c 256,0,1
0 1108 m 5,32,-1
 0 1247 l 5,33,-1
 712 1247 l 1,34,-1
 712 1108 l 5,35,-1
 0 1108 l 5,32,-1
EndSplineSet
Substitution2: "TrimCartouche" chichao_c_end
EndChar

StartChar: zozeo_c
Encoding: 56 -1 56
Width: 498
VWidth: 1187
GlyphClass: 2
Flags: W
HStem: 0 138<209 374 499 855> 277 0<997 997> 415 138<177 320> 1108 139<0 712>
VStem: 0 125<277 361> 31 125<-401 -55> 374 125<-401 0 138 360>
AnchorPoint: "tone" 249 554 basechar 0
LayerCount: 2
Fore
SplineSet
265 -553 m 257,0,1
 265 -553 265 -553 265 -553 c 257,0,1
265 -552 m 1,2,3
 307 -542 307 -542 337 -473 c 0,4,5
 374 -392 374 -392 374 -277 c 2,6,-1
 374 0 l 1,7,-1
 280 0 l 2,8,9
 229 0 229 0 192 -40 c 0,10,11
 155 -80 155 -80 156 -138 c 2,12,-1
 156 -277 l 2,13,14
 156 -392 156 -392 192 -473 c 0,15,16
 224 -542 224 -542 265 -552 c 1,2,3
249 -554 m 1,17,18
 255 -554 255 -554 260 -553 c 1,19,20
 169 -546 169 -546 104 -473 c 0,21,22
 31 -392 31 -392 31 -277 c 2,23,-1
 31 -138 l 2,24,25
 31 -24 31 -24 104 57 c 0,26,27
 166 126 166 126 249 136 c 1,28,-1
 249 138 l 1,29,-1
 374 138 l 1,30,-1
 374 277 l 2,31,32
 374 335 374 335 337 375 c 0,33,34
 301 415 301 415 249 415 c 256,35,36
 198 415 198 415 161 375 c 256,37,38
 124 335 124 335 125 277 c 1,39,-1
 0 277 l 1,40,41
 0 392 0 392 73 473 c 256,42,43
 146 554 146 554 249 554 c 256,44,45
 352 554 352 554 425 473 c 256,46,47
 498 392 498 392 499 277 c 2,48,-1
 499 138 l 1,49,-1
 748 138 l 2,50,51
 851 138 851 138 924 179 c 256,52,53
 997 219 997 219 997 277 c 1,54,55
 997 162 997 162 924 81 c 0,56,57
 851 0 851 0 748 0 c 2,58,-1
 499 0 l 1,59,-1
 499 -277 l 2,60,61
 499 -392 499 -392 425 -473 c 0,62,63
 359 -546 359 -546 270 -553 c 1,64,65
 275 -554 275 -554 280 -554 c 1,66,67
 273 -554 273 -554 265 -553 c 0,68,69
 256 -554 256 -554 249 -554 c 1,17,18
0 1108 m 5,70,-1
 0 1247 l 5,71,-1
 712 1247 l 1,72,-1
 712 1108 l 5,73,-1
 0 1108 l 5,70,-1
EndSplineSet
Substitution2: "TrimCartouche" zozeo_c_end
EndChar

StartChar: space_c
Encoding: 57 -1 57
Width: 498
VWidth: 1187
GlyphClass: 1
Flags: W
HStem: 1108 139<0 712>
LayerCount: 2
Fore
SplineSet
0 1108 m 5,0,-1
 0 1247 l 5,1,-1
 712 1247 l 1,2,-1
 712 1108 l 5,3,-1
 0 1108 l 5,0,-1
EndSplineSet
Substitution2: "TrimCartouche" space_c_end
EndChar

StartChar: prefix_c
Encoding: 58 -1 58
Width: 311
VWidth: 1187
GlyphClass: 2
Flags: W
HStem: 55 167<103 209> 332 166<103 207> 1108 139<0 525>
VStem: 81 150<80 201 357 474>
LayerCount: 2
Fore
SplineSet
156 55 m 0,0,1
 125 55 125 55 103 80 c 256,2,3
 81 105 81 105 81 138 c 0,4,5
 81 173 81 173 103 197 c 256,6,7
 125 222 125 222 156 222 c 0,8,9
 187 222 187 222 208 197 c 0,10,11
 230 172 230 172 230 138 c 0,12,13
 230 104 230 104 208 80 c 0,14,15
 187 55 187 55 156 55 c 0,0,1
156 332 m 0,16,17
 125 332 125 332 103 357 c 256,18,19
 81 382 81 382 81 415 c 0,20,21
 81 450 81 450 103 474 c 256,22,23
 125 499 125 499 156 499 c 0,24,25
 187 499 187 499 208 474 c 0,26,27
 230 449 230 449 230 415 c 0,28,29
 230 381 230 381 208 357 c 0,30,31
 187 332 187 332 156 332 c 0,16,17
0 1108 m 5,32,-1
 0 1247 l 5,33,-1
 525 1247 l 1,34,-1
 525 1108 l 5,35,-1
 0 1108 l 5,32,-1
EndSplineSet
Substitution2: "TrimCartouche" prefix_c_end
EndChar

StartChar: oaomo_c
Encoding: 59 -1 59
Width: 311
VWidth: 1187
GlyphClass: 2
Flags: W
HStem: 194 167<103 209> 1108 139<0 525>
VStem: 81 150<219 339>
LayerCount: 2
Fore
SplineSet
156 194 m 0,0,1
 125 194 125 194 103 218 c 256,2,3
 81 243 81 243 81 277 c 0,4,5
 81 312 81 312 103 336 c 256,6,7
 125 361 125 361 156 360 c 0,8,9
 187 360 187 360 208 336 c 0,10,11
 230 311 230 311 230 277 c 0,12,13
 230 243 230 243 208 218 c 0,14,15
 187 194 187 194 156 194 c 0,0,1
0 1108 m 5,16,-1
 0 1247 l 5,17,-1
 525 1247 l 1,18,-1
 525 1108 l 5,19,-1
 0 1108 l 5,16,-1
EndSplineSet
Substitution2: "TrimCartouche" oaomo_c_end
EndChar

StartChar: quote_c
Encoding: 60 -1 60
Width: 498
VWidth: 1187
GlyphClass: 2
Flags: W
HStem: 0 7G<243 256> 1108 139<0 712>
LayerCount: 2
Fore
SplineSet
249 0 m 1,0,-1
 125 138 l 1,1,-1
 249 277 l 1,2,-1
 374 138 l 1,3,-1
 249 0 l 1,0,-1
249 277 m 1,4,-1
 125 415 l 1,5,-1
 249 554 l 1,6,-1
 374 415 l 1,7,-1
 249 277 l 1,4,-1
0 1108 m 5,8,-1
 0 1247 l 5,9,-1
 712 1247 l 1,10,-1
 712 1108 l 5,11,-1
 0 1108 l 5,8,-1
EndSplineSet
Substitution2: "TrimCartouche" quote_c_end
EndChar

StartChar: dotted_circle
Encoding: 61 9676 61
Width: 498
VWidth: 1187
GlyphClass: 2
Flags: W
HStem: 206 99<421 462> 464 61<194 293>
VStem: 15 61<173 259> 195 97<467 516> 413 61<205 304>
AnchorPoint: "diphthong" 499 -174 basechar 0
AnchorPoint: "tone" 249 554 basechar 0
LayerCount: 2
Fore
SplineSet
254 532 m 0,0,1
 260 532 260 532 266 531 c 2,2,-1
 297 529 l 1,3,-1
 292 467 l 1,4,-1
 261 470 l 2,5,6
 243 471 243 471 226 468 c 2,7,-1
 195 464 l 1,8,-1
 186 524 l 1,9,-1
 216 529 l 2,10,11
 235 532 235 532 254 532 c 0,0,1
400 474 m 1,12,-1
 420 450 l 2,13,14
 436 431 436 431 448 410 c 2,15,-1
 463 384 l 1,16,-1
 409 353 l 1,17,-1
 394 380 l 2,18,19
 385 396 385 396 373 411 c 2,20,-1
 353 434 l 1,21,-1
 400 474 l 1,12,-1
87 462 m 1,22,-1
 137 426 l 1,23,-1
 118 401 l 2,24,25
 107 386 107 386 99 369 c 2,26,-1
 85 341 l 1,27,-1
 30 368 l 1,28,-1
 43 396 l 2,29,30
 54 418 54 418 69 438 c 2,31,-1
 87 462 l 1,22,-1
483 305 m 1,32,-1
 483 274 l 2,33,34
 483 250 483 250 479 226 c 2,35,-1
 474 196 l 1,36,-1
 413 206 l 1,37,-1
 418 236 l 2,38,39
 421 255 421 255 421 274 c 2,40,-1
 421 305 l 1,41,-1
 483 305 l 1,32,-1
75 268 m 1,42,-1
 80 238 l 2,43,44
 83 219 83 219 90 201 c 2,45,-1
 100 172 l 1,46,-1
 42 152 l 1,47,-1
 32 181 l 2,48,49
 24 204 24 204 20 228 c 2,50,-1
 15 258 l 1,51,-1
 75 268 l 1,42,-1
379 141 m 1,52,-1
 421 96 l 1,53,-1
 398 75 l 2,54,55
 379 58 379 58 358 46 c 2,56,-1
 331 30 l 1,57,-1
 300 84 l 1,58,-1
 327 99 l 2,59,60
 343 108 343 108 356 121 c 2,61,-1
 379 141 l 1,52,-1
144 115 m 1,62,-1
 170 100 l 2,63,64
 186 91 186 91 203 85 c 2,65,-1
 233 76 l 1,66,-1
 214 17 l 1,67,-1
 185 26 l 2,68,69
 161 34 161 34 139 47 c 2,70,-1
 113 62 l 1,71,-1
 144 115 l 1,62,-1
EndSplineSet
EndChar

StartChar: bubue_c_end
Encoding: 62 -1 62
Width: 498
VWidth: 1187
GlyphClass: 2
Flags: W
HStem: 415 138<177 320> 1108 139<0 499>
VStem: 0 125<277 361> 374 125<152 361>
AnchorPoint: "diphthong" 499 -174 basechar 0
AnchorPoint: "tone" 249 554 basechar 0
LayerCount: 2
Fore
SplineSet
249 0 m 1,0,1
 300 0 300 0 337 81 c 0,2,3
 374 162 374 162 374 277 c 0,4,5
 374 335 374 335 337 375 c 0,6,7
 301 415 301 415 249 415 c 256,8,9
 198 415 198 415 161 375 c 256,10,11
 124 335 124 335 125 277 c 1,12,-1
 0 277 l 1,13,14
 0 392 0 392 73 473 c 256,15,16
 146 554 146 554 249 554 c 256,17,18
 352 554 352 554 425 473 c 256,19,20
 498 392 498 392 499 277 c 256,21,22
 499 162 499 162 425 81 c 0,23,24
 352 0 352 0 249 0 c 1,0,1
0 1108 m 1,25,-1
 0 1247 l 1,26,-1
 499 1247 l 1,27,-1
 499 1108 l 1,28,-1
 0 1108 l 1,25,-1
EndSplineSet
EndChar

StartChar: cecoa_c_end
Encoding: 63 -1 63
Width: 498
VWidth: 1187
GlyphClass: 2
Flags: W
HStem: 0 138<178 356> 415 138<177 249> 1108 139<0 499>
VStem: 0 125<192 361>
AnchorPoint: "tone" 249 554 basechar 0
AnchorPoint: "diphthong" 499 -174 basechar 0
LayerCount: 2
Fore
SplineSet
249 0 m 256,0,1
 146 0 146 0 73 81 c 256,2,3
 0 162 0 162 0 277 c 0,4,5
 0 392 0 392 73 473 c 256,6,7
 146 554 146 554 249 554 c 1,8,-1
 249 415 l 1,9,10
 198 415 198 415 161 375 c 256,11,12
 124 335 124 335 125 277 c 256,13,14
 125 219 125 219 161 179 c 0,15,16
 198 138 198 138 249 138 c 0,17,18
 352 138 352 138 425 179 c 256,19,20
 498 219 498 219 499 277 c 1,21,22
 499 162 499 162 425 81 c 0,23,24
 352 0 352 0 249 0 c 256,0,1
0 1108 m 5,25,-1
 0 1247 l 5,26,-1
 499 1247 l 1,27,-1
 499 1108 l 1,28,-1
 0 1108 l 5,25,-1
EndSplineSet
EndChar

StartChar: dudeo_c_end
Encoding: 64 -1 64
Width: 498
VWidth: 1187
GlyphClass: 2
Flags: W
HStem: 0 138<142 320> 277 104<188 244> 450 104<188 248> 1108 139<0 499>
VStem: 93 93<382 449> 374 125<195 361>
AnchorPoint: "tone" 249 554 basechar 0
LayerCount: 2
Fore
SplineSet
337 375 m 257,0,1
 337 375 337 375 337 375 c 257,0,1
218 381 m 0,2,3
 231 381 231 381 240 391 c 256,4,5
 249 401 249 401 249 415 c 256,6,7
 249 430 249 430 240 440 c 0,8,9
 231 450 231 450 218 450 c 0,10,11
 205 450 205 450 196 440 c 0,12,13
 187 430 187 430 187 415 c 256,14,15
 187 400 187 400 196 391 c 0,16,17
 205 381 205 381 218 381 c 0,2,3
249 0 m 0,18,19
 145 0 145 0 72 81 c 0,20,21
 0 162 0 162 0 277 c 1,22,23
 0 219 0 219 72 179 c 0,24,25
 145 139 145 139 249 138 c 0,26,27
 300 138 300 138 337 179 c 0,28,29
 374 219 374 219 374 277 c 256,30,31
 374 335 374 335 337 375 c 1,32,33
 328 343 328 343 306 317 c 0,34,35
 269 277 269 277 218 277 c 256,36,37
 167 277 167 277 130 317 c 256,38,39
 93 357 93 357 93 415 c 256,40,41
 93 473 93 473 130 513 c 256,42,43
 167 553 167 553 218 554 c 0,44,45
 234 554 234 554 249 550 c 1,46,-1
 249 554 l 1,47,48
 352 554 352 554 425 473 c 256,49,50
 498 392 498 392 499 277 c 0,51,52
 499 163 499 163 425 81 c 256,53,54
 352 0 352 0 249 0 c 0,18,19
0 1108 m 5,55,-1
 0 1247 l 5,56,-1
 499 1247 l 1,57,-1
 499 1108 l 1,58,-1
 0 1108 l 5,55,-1
EndSplineSet
EndChar

StartChar: fofuaq_c_end
Encoding: 65 -1 65
Width: 498
VWidth: 1187
GlyphClass: 2
Flags: W
HStem: 415 138<177 320> 1108 139<0 499>
VStem: 0 125<277 361> 374 125<-401 360>
AnchorPoint: "tone" 249 554 basechar 0
AnchorPoint: "diphthong" 499 -174 basechar 0
LayerCount: 2
Fore
SplineSet
249 -554 m 1,0,1
 300 -554 300 -554 337 -473 c 256,2,3
 374 -392 374 -392 374 -277 c 2,4,-1
 374 277 l 2,5,6
 374 335 374 335 337 375 c 0,7,8
 301 415 301 415 249 415 c 256,9,10
 198 415 198 415 161 375 c 256,11,12
 124 335 124 335 125 277 c 1,13,-1
 0 277 l 1,14,15
 0 392 0 392 73 473 c 256,16,17
 146 554 146 554 249 554 c 256,18,19
 352 554 352 554 425 473 c 256,20,21
 498 392 498 392 499 277 c 2,22,-1
 499 -277 l 2,23,24
 499 -392 499 -392 425 -473 c 256,25,26
 352 -554 352 -554 249 -554 c 1,0,1
0 1108 m 5,27,-1
 0 1247 l 5,28,-1
 499 1247 l 1,29,-1
 499 1108 l 1,30,-1
 0 1108 l 5,27,-1
EndSplineSet
EndChar

StartChar: gugui_c_end
Encoding: 66 -1 66
Width: 653
VWidth: 1187
GlyphClass: 2
Flags: W
HStem: 0 138<178 320 552 695> 415 138<177 249> 1108 139<0 654>
VStem: 0 125<192 361> 374 125<194 277>
AnchorPoint: "tone" 249 554 basechar 0
AnchorPoint: "diphthong" 623 -174 basechar 0
LayerCount: 2
Fore
SplineSet
436 93 m 257,0,1
 436 93 436 93 436 93 c 257,0,1
249 0 m 256,2,3
 146 0 146 0 73 81 c 256,4,5
 0 162 0 162 0 277 c 0,6,7
 0 392 0 392 73 473 c 256,8,9
 146 554 146 554 249 554 c 1,10,-1
 249 415 l 1,11,12
 198 415 198 415 161 375 c 256,13,14
 124 335 124 335 125 277 c 256,15,16
 125 219 125 219 161 179 c 0,17,18
 198 138 198 138 249 138 c 256,19,20
 300 138 300 138 337 179 c 0,21,22
 374 219 374 219 374 277 c 1,23,-1
 499 277 l 1,24,25
 499 219 499 219 535 179 c 0,26,27
 572 138 572 138 623 138 c 0,28,29
 649 138 649 138 672 149 c 0,30,31
 694 159 694 159 711 179 c 1,32,-1
 800 81 l 1,33,34
 765 43 765 43 720 21 c 0,35,36
 673 0 673 0 623 0 c 0,37,38
 520 0 520 0 447 81 c 0,39,40
 441 87 441 87 436 93 c 1,41,42
 431 87 431 87 425 81 c 0,43,44
 352 0 352 0 249 0 c 256,2,3
0 1108 m 5,45,-1
 0 1247 l 5,46,-1
 654 1247 l 1,47,-1
 654 1108 l 1,48,-1
 0 1108 l 5,45,-1
EndSplineSet
EndChar

StartChar: hehaq_c_end
Encoding: 67 -1 67
Width: 498
VWidth: 1187
GlyphClass: 2
Flags: W
HStem: 0 138<249 374 499 855> 277 0<997 997> 415 138<177 320> 1108 139<0 499>
VStem: 0 125<277 361> 374 125<-401 0 138 360>
AnchorPoint: "tone" 249 554 basechar 0
LayerCount: 2
Fore
SplineSet
249 -554 m 1,0,1
 300 -554 300 -554 337 -473 c 256,2,3
 374 -392 374 -392 374 -277 c 2,4,-1
 374 0 l 1,5,-1
 249 0 l 1,6,-1
 249 138 l 1,7,-1
 374 138 l 1,8,-1
 374 277 l 2,9,10
 374 335 374 335 337 375 c 0,11,12
 301 415 301 415 249 415 c 256,13,14
 198 415 198 415 161 375 c 256,15,16
 124 335 124 335 125 277 c 1,17,-1
 0 277 l 1,18,19
 0 392 0 392 73 473 c 256,20,21
 146 554 146 554 249 554 c 256,22,23
 352 554 352 554 425 473 c 256,24,25
 498 392 498 392 499 277 c 2,26,-1
 499 138 l 1,27,-1
 748 138 l 2,28,29
 851 138 851 138 924 179 c 256,30,31
 997 219 997 219 997 277 c 1,32,33
 997 162 997 162 924 81 c 0,34,35
 851 0 851 0 748 0 c 2,36,-1
 499 0 l 1,37,-1
 499 -277 l 2,38,39
 499 -392 499 -392 425 -473 c 256,40,41
 352 -554 352 -554 249 -554 c 1,0,1
0 1108 m 5,42,-1
 0 1247 l 5,43,-1
 499 1247 l 1,44,-1
 499 1108 l 1,45,-1
 0 1108 l 5,42,-1
EndSplineSet
EndChar

StartChar: jujuo_c_end
Encoding: 68 -1 68
Width: 872
VWidth: 1187
GlyphClass: 2
Flags: W
HStem: 415 138<177 320 551 694> 1108 139<0 873>
VStem: 0 125<277 361> 374 125<277 360> 748 125<152 361>
CounterMasks: 1 38
AnchorPoint: "tone" 249 554 basechar 0
LayerCount: 2
Fore
SplineSet
623 0 m 1,0,1
 674 0 674 0 711 81 c 0,2,3
 748 162 748 162 748 277 c 0,4,5
 748 335 748 335 711 375 c 256,6,7
 674 415 674 415 623 415 c 256,8,9
 572 415 572 415 535 375 c 256,10,11
 498 335 498 335 499 277 c 1,12,-1
 374 277 l 1,13,14
 374 335 374 335 337 375 c 0,15,16
 301 415 301 415 249 415 c 256,17,18
 198 415 198 415 161 375 c 256,19,20
 124 335 124 335 125 277 c 1,21,-1
 0 277 l 1,22,23
 0 392 0 392 73 473 c 256,24,25
 146 554 146 554 249 554 c 256,26,27
 352 554 352 554 425 473 c 0,28,29
 430 467 430 467 436 460 c 1,30,31
 441 466 441 466 447 473 c 0,32,33
 520 554 520 554 623 554 c 256,34,35
 726 554 726 554 800 473 c 256,36,37
 873 392 873 392 873 277 c 256,38,39
 873 162 873 162 800 81 c 0,40,41
 726 0 726 0 623 0 c 1,0,1
0 1108 m 5,42,-1
 0 1247 l 5,43,-1
 873 1247 l 1,44,-1
 873 1108 l 1,45,-1
 0 1108 l 5,42,-1
EndSplineSet
EndChar

StartChar: kikue_c_end
Encoding: 69 -1 69
Width: 498
VWidth: 1187
GlyphClass: 2
Flags: W
HStem: -360 167<197 302> 0 138<178 356> 415 138<177 249> 1108 139<0 499>
VStem: 0 125<192 361> 174 150<-335 -219>
AnchorPoint: "tone" 249 554 basechar 0
LayerCount: 2
Fore
SplineSet
249 -360 m 0,0,1
 218 -360 218 -360 196 -336 c 0,2,3
 175 -311 175 -311 174 -277 c 0,4,5
 174 -243 174 -243 196 -218 c 0,6,7
 218 -193 218 -193 249 -194 c 0,8,9
 280 -194 280 -194 302 -218 c 256,10,11
 324 -243 324 -243 324 -277 c 0,12,13
 324 -312 324 -312 302 -336 c 256,14,15
 280 -360 280 -360 249 -360 c 0,0,1
249 0 m 256,16,17
 146 0 146 0 73 81 c 256,18,19
 0 162 0 162 0 277 c 0,20,21
 0 392 0 392 73 473 c 256,22,23
 146 554 146 554 249 554 c 1,24,-1
 249 415 l 1,25,26
 198 415 198 415 161 375 c 256,27,28
 124 335 124 335 125 277 c 256,29,30
 125 219 125 219 161 179 c 0,31,32
 198 138 198 138 249 138 c 0,33,34
 352 138 352 138 425 179 c 256,35,36
 498 219 498 219 499 277 c 1,37,38
 499 162 499 162 425 81 c 0,39,40
 352 0 352 0 249 0 c 256,16,17
0 1108 m 5,41,-1
 0 1247 l 5,42,-1
 499 1247 l 1,43,-1
 499 1108 l 1,44,-1
 0 1108 l 5,41,-1
EndSplineSet
EndChar

StartChar: laoliq_c_end
Encoding: 70 -1 70
Width: 997
VWidth: 1187
GlyphClass: 2
Flags: W
HStem: -360 167<569 675> 0 138<466 873> 415 138<177 320 675 821> 1108 139<0 997>
VStem: 0 125<277 361> 374 125<153 361> 499 125<277 361> 549 150<-339 -219> 873 125<138 361>
AnchorPoint: "tone" 249 554 basechar 0
LayerCount: 2
Fore
SplineSet
623 -360 m 0,0,1
 592 -360 592 -360 571 -336 c 0,2,3
 549 -311 549 -311 549 -277 c 0,4,5
 549 -243 549 -243 571 -218 c 0,6,7
 592 -193 592 -193 623 -194 c 0,8,9
 654 -194 654 -194 676 -218 c 256,10,11
 698 -243 698 -243 698 -277 c 0,12,13
 698 -312 698 -312 676 -336 c 256,14,15
 654 -360 654 -360 623 -360 c 0,0,1
249 0 m 1,16,-1
 309 33 l 1,17,18
 324 51 324 51 337 81 c 0,19,20
 374 162 374 162 374 277 c 0,21,22
 374 335 374 335 337 375 c 0,23,24
 301 415 301 415 249 415 c 256,25,26
 198 415 198 415 161 375 c 256,27,28
 124 335 124 335 125 277 c 1,29,-1
 0 277 l 1,30,31
 0 392 0 392 73 473 c 256,32,33
 146 554 146 554 249 554 c 256,34,35
 352 554 352 554 425 473 c 256,36,37
 498 392 498 392 499 277 c 0,38,39
 499 200 499 200 466 138 c 1,40,-1
 873 138 l 1,41,-1
 873 277 l 2,42,43
 873 335 873 335 836 375 c 256,44,45
 799 415 799 415 748 415 c 256,46,47
 697 415 697 415 660 375 c 256,48,49
 623 335 623 335 623 277 c 1,50,-1
 499 277 l 1,51,52
 499 392 499 392 572 473 c 256,53,54
 645 554 645 554 748 554 c 256,55,56
 851 554 851 554 924 473 c 256,57,58
 997 392 997 392 997 277 c 2,59,-1
 997 0 l 1,60,-1
 249 0 l 1,16,-1
0 1108 m 5,61,-1
 0 1247 l 5,62,-1
 997 1247 l 1,63,-1
 997 1108 l 1,64,-1
 0 1108 l 5,61,-1
EndSplineSet
EndChar

StartChar: mamei_c_end
Encoding: 71 -1 71
Width: 1495
VWidth: 1187
GlyphClass: 2
Flags: W
HStem: 0 138<466 873 997 1371> 415 138<177 320 675 821 1174 1317> 1108 139<0 1496>
VStem: 0 125<277 361> 374 125<153 361> 499 125<277 361> 873 125<138 361> 1371 125<-401 0 138 361>
AnchorPoint: "tone" 249 554 basechar 0
LayerCount: 2
Fore
SplineSet
1247 -554 m 1,0,1
 1298 -554 1298 -554 1335 -473 c 256,2,3
 1372 -392 1372 -392 1371 -277 c 2,4,-1
 1371 0 l 1,5,-1
 249 0 l 1,6,-1
 309 33 l 1,7,8
 324 51 324 51 337 81 c 0,9,10
 374 162 374 162 374 277 c 0,11,12
 374 335 374 335 337 375 c 0,13,14
 301 415 301 415 249 415 c 256,15,16
 198 415 198 415 161 375 c 256,17,18
 124 335 124 335 125 277 c 1,19,-1
 0 277 l 1,20,21
 0 392 0 392 73 473 c 256,22,23
 146 554 146 554 249 554 c 256,24,25
 352 554 352 554 425 473 c 256,26,27
 498 392 498 392 499 277 c 0,28,29
 499 200 499 200 466 138 c 1,30,-1
 873 138 l 1,31,-1
 873 277 l 2,32,33
 873 335 873 335 836 375 c 256,34,35
 799 415 799 415 748 415 c 256,36,37
 697 415 697 415 660 375 c 256,38,39
 623 335 623 335 623 277 c 1,40,-1
 499 277 l 1,41,42
 499 392 499 392 572 473 c 256,43,44
 645 554 645 554 748 554 c 256,45,46
 851 554 851 554 924 473 c 256,47,48
 997 392 997 392 997 277 c 2,49,-1
 997 138 l 1,50,-1
 1371 138 l 1,51,-1
 1371 277 l 2,52,53
 1371 335 1371 335 1335 375 c 256,54,55
 1298 415 1298 415 1247 415 c 256,56,57
 1196 415 1196 415 1158 375 c 256,58,59
 1121 335 1121 335 1122 277 c 1,60,-1
 997 277 l 1,61,62
 997 392 997 392 1070 473 c 256,63,64
 1143 554 1143 554 1247 554 c 256,65,66
 1350 554 1350 554 1423 473 c 256,67,68
 1496 392 1496 392 1496 277 c 2,69,-1
 1496 -277 l 2,70,71
 1496 -392 1496 -392 1423 -473 c 256,72,73
 1350 -554 1350 -554 1247 -554 c 1,0,1
0 1108 m 5,74,-1
 0 1247 l 5,75,-1
 1496 1247 l 1,76,-1
 1496 1108 l 1,77,-1
 0 1108 l 5,74,-1
EndSplineSet
EndChar

StartChar: nanaq_c_end
Encoding: 72 -1 72
Width: 498
VWidth: 1187
GlyphClass: 2
Flags: W
HStem: 0 138<178 320> 415 138<177 320> 554 139<249 356> 1108 139<0 499>
VStem: 0 125<192 361> 374 125<195 361>
AnchorPoint: "tone" 249 554 basechar 0
LayerCount: 2
Fore
SplineSet
249 138 m 256,0,1
 300 138 300 138 337 179 c 0,2,3
 374 219 374 219 374 277 c 256,4,5
 374 335 374 335 337 375 c 0,6,7
 301 415 301 415 249 415 c 256,8,9
 198 415 198 415 161 375 c 256,10,11
 124 335 124 335 125 277 c 256,12,13
 125 219 125 219 161 179 c 0,14,15
 198 138 198 138 249 138 c 256,0,1
249 0 m 256,16,17
 146 0 146 0 73 81 c 256,18,19
 0 162 0 162 0 277 c 0,20,21
 0 392 0 392 73 473 c 256,22,23
 146 554 146 554 249 554 c 256,24,25
 352 554 352 554 425 473 c 256,26,27
 498 392 498 392 499 277 c 0,28,29
 499 163 499 163 425 81 c 256,30,31
 352 0 352 0 249 0 c 256,16,17
249 554 m 1,32,-1
 249 692 l 1,33,34
 352 692 352 692 425 733 c 256,35,36
 498 773 498 773 499 831 c 1,37,38
 499 716 499 716 425 635 c 256,39,40
 352 554 352 554 249 554 c 1,32,-1
0 1108 m 5,41,-1
 0 1247 l 5,42,-1
 499 1247 l 1,43,-1
 499 1108 l 1,44,-1
 0 1108 l 5,41,-1
EndSplineSet
EndChar

StartChar: pipoq_c_end
Encoding: 73 -1 73
Width: 498
VWidth: 1187
GlyphClass: 2
Flags: W
HStem: 0 138<178 321> 415 138<177 320> 1108 139<0 499>
VStem: 0 125<192 361> 374 125<-401 36 194 360>
AnchorPoint: "tone" 249 554 basechar 0
LayerCount: 2
Fore
SplineSet
249 138 m 256,0,1
 300 138 300 138 337 179 c 0,2,3
 374 219 374 219 374 277 c 256,4,5
 374 335 374 335 337 375 c 0,6,7
 301 415 301 415 249 415 c 256,8,9
 198 415 198 415 161 375 c 256,10,11
 124 335 124 335 125 277 c 256,12,13
 125 219 125 219 161 179 c 0,14,15
 198 138 198 138 249 138 c 256,0,1
249 -554 m 1,16,17
 300 -554 300 -554 337 -473 c 256,18,19
 374 -392 374 -392 374 -277 c 2,20,-1
 374 36 l 1,21,22
 318 0 318 0 249 0 c 0,23,24
 146 0 146 0 73 81 c 256,25,26
 0 162 0 162 0 277 c 0,27,28
 0 392 0 392 73 473 c 256,29,30
 146 554 146 554 249 554 c 256,31,32
 352 554 352 554 425 473 c 256,33,34
 498 392 498 392 499 277 c 2,35,-1
 499 -277 l 2,36,37
 499 -392 499 -392 425 -473 c 256,38,39
 352 -554 352 -554 249 -554 c 1,16,17
0 1108 m 5,40,-1
 0 1247 l 5,41,-1
 499 1247 l 1,42,-1
 499 1108 l 1,43,-1
 0 1108 l 5,40,-1
EndSplineSet
EndChar

StartChar: aqaq_c_end
Encoding: 74 -1 74
Width: 498
VWidth: 1187
GlyphClass: 2
Flags: W
HStem: 0 138<178 321> 415 138<177 249> 1108 139<0 499>
VStem: 0 125<192 361> 374 125<-401 36 194 277>
AnchorPoint: "tone" 249 554 basechar 0
LayerCount: 2
Fore
SplineSet
249 -554 m 1,0,1
 300 -554 300 -554 337 -473 c 256,2,3
 374 -392 374 -392 374 -277 c 2,4,-1
 374 36 l 1,5,6
 318 0 318 0 249 0 c 0,7,8
 146 0 146 0 73 81 c 256,9,10
 0 162 0 162 0 277 c 0,11,12
 0 392 0 392 73 473 c 256,13,14
 146 554 146 554 249 554 c 1,15,-1
 249 415 l 1,16,17
 198 415 198 415 161 375 c 256,18,19
 124 335 124 335 125 277 c 256,20,21
 125 219 125 219 161 179 c 0,22,23
 198 138 198 138 249 138 c 256,24,25
 300 138 300 138 337 179 c 0,26,27
 374 219 374 219 374 277 c 1,28,-1
 499 277 l 1,29,-1
 499 -277 l 2,30,31
 499 -392 499 -392 425 -473 c 256,32,33
 352 -554 352 -554 249 -554 c 1,0,1
0 1108 m 5,34,-1
 0 1247 l 5,35,-1
 499 1247 l 1,36,-1
 499 1108 l 1,37,-1
 0 1108 l 5,34,-1
EndSplineSet
EndChar

StartChar: rairua_c_end
Encoding: 75 -1 75
Width: 997
VWidth: 1187
Flags: W
HStem: 0 138<466 873> 415 138<177 320 675 821> 1108 139<0 997>
VStem: 0 125<277 361> 374 125<153 361> 499 125<277 361> 873 125<-401 0 138 361>
AnchorPoint: "tone" 249 554 basechar 0
LayerCount: 2
Fore
SplineSet
748 -554 m 1,0,1
 799 -554 799 -554 836 -473 c 256,2,3
 873 -392 873 -392 873 -277 c 2,4,-1
 873 0 l 1,5,-1
 249 0 l 1,6,-1
 309 33 l 1,7,8
 324 51 324 51 337 81 c 0,9,10
 374 162 374 162 374 277 c 0,11,12
 374 335 374 335 337 375 c 0,13,14
 301 415 301 415 249 415 c 256,15,16
 198 415 198 415 161 375 c 256,17,18
 124 335 124 335 125 277 c 1,19,-1
 0 277 l 1,20,21
 0 392 0 392 73 473 c 256,22,23
 146 554 146 554 249 554 c 256,24,25
 352 554 352 554 425 473 c 256,26,27
 498 392 498 392 499 277 c 0,28,29
 499 200 499 200 466 138 c 1,30,-1
 873 138 l 1,31,-1
 873 277 l 2,32,33
 873 335 873 335 836 375 c 256,34,35
 799 415 799 415 748 415 c 256,36,37
 697 415 697 415 660 375 c 256,38,39
 623 335 623 335 623 277 c 1,40,-1
 499 277 l 1,41,42
 499 392 499 392 572 473 c 256,43,44
 645 554 645 554 748 554 c 256,45,46
 851 554 851 554 924 473 c 256,47,48
 997 392 997 392 997 277 c 2,49,-1
 997 -277 l 2,50,51
 997 -392 997 -392 924 -473 c 256,52,53
 851 -554 851 -554 748 -554 c 1,0,1
0 1108 m 5,54,-1
 0 1247 l 5,55,-1
 997 1247 l 1,56,-1
 997 1108 l 1,57,-1
 0 1108 l 5,54,-1
EndSplineSet
EndChar

StartChar: saqseoq_c_end
Encoding: 76 -1 76
Width: 498
VWidth: 1187
GlyphClass: 2
Flags: W
HStem: 0 138<178 320> 415 138<177 320> 1108 139<0 499>
VStem: 0 125<192 361> 374 125<195 361>
AnchorPoint: "tone" 249 554 basechar 0
AnchorPoint: "diphthong" 499 -174 basechar 0
LayerCount: 2
Fore
SplineSet
249 138 m 256,0,1
 300 138 300 138 337 179 c 0,2,3
 374 219 374 219 374 277 c 256,4,5
 374 335 374 335 337 375 c 0,6,7
 301 415 301 415 249 415 c 256,8,9
 198 415 198 415 161 375 c 256,10,11
 124 335 124 335 125 277 c 256,12,13
 125 219 125 219 161 179 c 0,14,15
 198 138 198 138 249 138 c 256,0,1
249 0 m 256,16,17
 146 0 146 0 73 81 c 256,18,19
 0 162 0 162 0 277 c 0,20,21
 0 392 0 392 73 473 c 256,22,23
 146 554 146 554 249 554 c 256,24,25
 352 554 352 554 425 473 c 256,26,27
 498 392 498 392 499 277 c 0,28,29
 499 163 499 163 425 81 c 256,30,31
 352 0 352 0 249 0 c 256,16,17
0 1108 m 5,32,-1
 0 1247 l 5,33,-1
 499 1247 l 1,34,-1
 499 1108 l 1,35,-1
 0 1108 l 5,32,-1
EndSplineSet
EndChar

StartChar: titieq_c_end
Encoding: 77 -1 77
Width: 872
VWidth: 1187
GlyphClass: 2
Flags: W
HStem: 0 138<178 320> 415 138<177 321> 692 138<552 695> 1108 139<0 873>
VStem: 0 125<192 361> 374 125<196 360 518 638> 748 125<152 638>
CounterMasks: 1 0e
AnchorPoint: "tone" 249 554 basechar 0
LayerCount: 2
Fore
SplineSet
249 138 m 256,0,1
 300 138 300 138 337 179 c 0,2,3
 374 219 374 219 374 277 c 256,4,5
 374 335 374 335 337 375 c 0,6,7
 301 415 301 415 249 415 c 256,8,9
 198 415 198 415 161 375 c 256,10,11
 124 335 124 335 125 277 c 256,12,13
 125 219 125 219 161 179 c 0,14,15
 198 138 198 138 249 138 c 256,0,1
249 0 m 256,16,17
 146 0 146 0 73 81 c 256,18,19
 0 162 0 162 0 277 c 0,20,21
 0 392 0 392 73 473 c 256,22,23
 146 554 146 554 249 554 c 0,24,25
 318 554 318 554 374 518 c 1,26,-1
 374 554 l 2,27,28
 374 669 374 669 447 750 c 256,29,30
 520 831 520 831 623 831 c 256,31,32
 726 831 726 831 800 750 c 256,33,34
 873 669 873 669 873 554 c 2,35,-1
 873 277 l 2,36,37
 873 162 873 162 800 81 c 0,38,39
 727 0 727 0 623 0 c 1,40,41
 674 0 674 0 711 81 c 0,42,43
 748 162 748 162 748 277 c 2,44,-1
 748 554 l 2,45,46
 748 612 748 612 711 652 c 256,47,48
 674 692 674 692 623 692 c 256,49,50
 572 692 572 692 535 652 c 256,51,52
 498 612 498 612 499 554 c 2,53,-1
 499 277 l 2,54,55
 499 163 499 163 425 81 c 256,56,57
 352 0 352 0 249 0 c 256,16,17
0 1108 m 5,58,-1
 0 1247 l 5,59,-1
 873 1247 l 1,60,-1
 873 1108 l 1,61,-1
 0 1108 l 5,58,-1
EndSplineSet
EndChar

StartChar: veva_c_end
Encoding: 78 -1 78
Width: 498
VWidth: 1187
GlyphClass: 2
Flags: W
HStem: 415 138<125 320> 1108 139<0 499>
VStem: 0 125<554 678> 374 125<152 361>
AnchorPoint: "tone" 748 554 basechar 0
LayerCount: 2
Fore
SplineSet
249 0 m 1,0,1
 300 0 300 0 337 81 c 0,2,3
 374 162 374 162 374 277 c 0,4,5
 374 335 374 335 337 375 c 0,6,7
 301 415 301 415 249 415 c 2,8,-1
 0 415 l 1,9,-1
 0 554 l 2,10,11
 0 669 0 669 73 750 c 0,12,13
 145 831 145 831 249 831 c 1,14,15
 198 831 198 831 161 750 c 256,16,17
 124 669 124 669 125 554 c 1,18,-1
 249 554 l 2,19,20
 352 554 352 554 425 473 c 256,21,22
 498 392 498 392 499 277 c 256,23,24
 499 162 499 162 425 81 c 0,25,26
 352 0 352 0 249 0 c 1,0,1
0 1108 m 5,27,-1
 0 1247 l 5,28,-1
 499 1247 l 1,29,-1
 499 1108 l 1,30,-1
 0 1108 l 5,27,-1
EndSplineSet
EndChar

StartChar: nhanhoq_c_end
Encoding: 79 -1 79
Width: 498
VWidth: 1187
GlyphClass: 2
Flags: W
HStem: 0 104<193 244> 173 104<188 248> 415 138<177 320> 1108 139<0 499>
VStem: 0 125<277 361> 93 93<109 172> 374 125<192 361>
AnchorPoint: "tone" 249 554 basechar 0
LayerCount: 2
Fore
SplineSet
249 4 m 1024,0,1
218 104 m 0,2,3
 231 104 231 104 240 114 c 0,4,5
 249 124 249 124 249 138 c 0,6,7
 249 153 249 153 240 162 c 0,8,9
 231 172 231 172 218 173 c 0,10,11
 205 173 205 173 196 162 c 0,12,13
 187 152 187 152 187 138 c 0,14,15
 187 124 187 124 196 114 c 0,16,17
 205 104 205 104 218 104 c 0,2,3
218 0 m 0,18,19
 167 0 167 0 130 40 c 0,20,21
 93 81 93 81 93 138 c 0,22,23
 93 196 93 196 130 237 c 0,24,25
 167 277 167 277 218 277 c 256,26,27
 269 277 269 277 306 237 c 0,28,29
 329 211 329 211 337 179 c 1,30,31
 374 219 374 219 374 277 c 0,32,33
 374 335 374 335 337 375 c 0,34,35
 301 415 301 415 249 415 c 256,36,37
 198 415 198 415 161 375 c 256,38,39
 124 335 124 335 125 277 c 1,40,-1
 0 277 l 1,41,42
 0 392 0 392 73 473 c 256,43,44
 146 554 146 554 249 554 c 256,45,46
 352 554 352 554 425 473 c 256,47,48
 498 392 498 392 499 277 c 0,49,50
 499 163 499 163 425 81 c 256,51,52
 352 0 352 0 249 0 c 1,53,-1
 249 4 l 1,54,55
 234 0 234 0 218 0 c 0,18,19
0 1108 m 5,56,-1
 0 1247 l 5,57,-1
 499 1247 l 1,58,-1
 499 1108 l 1,59,-1
 0 1108 l 5,56,-1
EndSplineSet
EndChar

StartChar: shoshia_c_end
Encoding: 80 -1 80
Width: 498
VWidth: 1187
GlyphClass: 2
Flags: W
HStem: 0 138<178 321> 415 138<177 356> 1108 139<0 499>
VStem: 0 125<192 361> 374 125<-401 36 194 277>
AnchorPoint: "tone" 249 554 basechar 0
LayerCount: 2
Fore
SplineSet
249 -554 m 1,0,1
 300 -554 300 -554 337 -473 c 256,2,3
 374 -392 374 -392 374 -277 c 2,4,-1
 374 36 l 1,5,6
 318 0 318 0 249 0 c 0,7,8
 146 0 146 0 73 81 c 256,9,10
 0 162 0 162 0 277 c 0,11,12
 0 392 0 392 73 473 c 256,13,14
 146 554 146 554 249 554 c 256,15,16
 352 554 352 554 425 594 c 256,17,18
 498 634 498 634 499 692 c 1,19,20
 499 577 499 577 425 496 c 256,21,22
 352 415 352 415 249 415 c 0,23,24
 198 415 198 415 161 375 c 256,25,26
 124 335 124 335 125 277 c 256,27,28
 125 219 125 219 161 179 c 0,29,30
 198 138 198 138 249 138 c 256,31,32
 300 138 300 138 337 179 c 0,33,34
 374 219 374 219 374 277 c 1,35,-1
 499 277 l 1,36,-1
 499 -277 l 2,37,38
 499 -392 499 -392 425 -473 c 256,39,40
 352 -554 352 -554 249 -554 c 1,0,1
0 1108 m 5,41,-1
 0 1247 l 5,42,-1
 499 1247 l 1,43,-1
 499 1108 l 1,44,-1
 0 1108 l 5,41,-1
EndSplineSet
EndChar

StartChar: chichao_c_end
Encoding: 81 -1 81
Width: 498
VWidth: 1187
GlyphClass: 2
Flags: W
HStem: 0 138<178 356> 415 138<177 356> 1108 139<0 499>
VStem: 0 125<192 361>
AnchorPoint: "tone" 249 554 basechar 0
LayerCount: 2
Fore
SplineSet
249 0 m 256,0,1
 146 0 146 0 73 81 c 256,2,3
 0 162 0 162 0 277 c 0,4,5
 0 392 0 392 73 473 c 256,6,7
 146 554 146 554 249 554 c 256,8,9
 352 554 352 554 425 594 c 256,10,11
 498 634 498 634 499 692 c 1,12,13
 499 577 499 577 425 496 c 256,14,15
 352 415 352 415 249 415 c 0,16,17
 198 415 198 415 161 375 c 256,18,19
 124 335 124 335 125 277 c 256,20,21
 125 219 125 219 161 179 c 0,22,23
 198 138 198 138 249 138 c 0,24,25
 352 138 352 138 425 179 c 256,26,27
 498 219 498 219 499 277 c 1,28,29
 499 162 499 162 425 81 c 0,30,31
 352 0 352 0 249 0 c 256,0,1
0 1108 m 5,32,-1
 0 1247 l 5,33,-1
 499 1247 l 1,34,-1
 499 1108 l 1,35,-1
 0 1108 l 5,32,-1
EndSplineSet
EndChar

StartChar: zozeo_c_end
Encoding: 82 -1 82
Width: 498
VWidth: 1187
GlyphClass: 2
Flags: W
HStem: 0 138<209 374 499 855> 277 0<997 997> 415 138<177 320> 1108 139<0 499>
VStem: 0 125<277 361> 31 125<-401 -55> 374 125<-401 0 138 360>
AnchorPoint: "tone" 249 554 basechar 0
LayerCount: 2
Fore
SplineSet
265 -553 m 257,0,1
 265 -553 265 -553 265 -553 c 257,0,1
265 -552 m 1,2,3
 307 -542 307 -542 337 -473 c 0,4,5
 374 -392 374 -392 374 -277 c 2,6,-1
 374 0 l 1,7,-1
 280 0 l 2,8,9
 229 0 229 0 192 -40 c 128,-1,11
 155 -80 155 -80 156 -138 c 2,12,-1
 156 -277 l 2,13,14
 156 -392 156 -392 192 -473 c 0,15,16
 224 -542 224 -542 265 -552 c 1,2,3
249 -554 m 1,17,18
 255 -554 255 -554 260 -553 c 1,19,20
 169 -546 169 -546 104 -473 c 0,21,22
 31 -392 31 -392 31 -277 c 2,23,-1
 31 -138 l 2,24,25
 31 -24 31 -24 104 57 c 0,26,27
 166 126 166 126 249 136 c 1,28,-1
 249 138 l 1,29,-1
 374 138 l 1,30,-1
 374 277 l 2,31,32
 374 335 374 335 337 375 c 0,33,34
 301 415 301 415 249 415 c 256,35,36
 198 415 198 415 161 375 c 256,37,38
 124 335 124 335 125 277 c 1,39,-1
 0 277 l 1,40,41
 0 392 0 392 73 473 c 256,42,43
 146 554 146 554 249 554 c 256,44,45
 352 554 352 554 425 473 c 256,46,47
 498 392 498 392 499 277 c 2,48,-1
 499 138 l 1,49,-1
 748 138 l 2,50,51
 851 138 851 138 924 179 c 256,52,53
 997 219 997 219 997 277 c 1,54,55
 997 162 997 162 924 81 c 128,-1,57
 851 0 851 0 748 0 c 2,58,-1
 499 0 l 1,59,-1
 499 -277 l 2,60,61
 499 -392 499 -392 425 -473 c 0,62,63
 359 -546 359 -546 270 -553 c 1,64,65
 275 -554 275 -554 280 -554 c 1,66,67
 273 -554 273 -554 265 -553 c 0,68,69
 256 -554 256 -554 249 -554 c 1,17,18
0 1108 m 5,70,-1
 0 1247 l 5,71,-1
 499 1247 l 1,72,-1
 499 1108 l 1,73,-1
 0 1108 l 5,70,-1
EndSplineSet
EndChar

StartChar: space_c_end
Encoding: 83 -1 83
Width: 498
VWidth: 1187
GlyphClass: 1
Flags: W
HStem: 1108 139<0 499>
LayerCount: 2
Fore
SplineSet
0 1108 m 5,0,-1
 0 1247 l 5,1,-1
 499 1247 l 1,2,-1
 499 1108 l 1,3,-1
 0 1108 l 5,0,-1
EndSplineSet
EndChar

StartChar: prefix_c_end
Encoding: 84 -1 84
Width: 311
VWidth: 1187
GlyphClass: 2
Flags: W
HStem: 55 167<103 209> 332 166<103 207> 1108 139<0 311>
VStem: 81 150<80 201 357 474>
LayerCount: 2
Fore
SplineSet
156 55 m 0,0,1
 125 55 125 55 103 80 c 256,2,3
 81 105 81 105 81 138 c 0,4,5
 81 173 81 173 103 197 c 256,6,7
 125 222 125 222 156 222 c 0,8,9
 187 222 187 222 208 197 c 0,10,11
 230 172 230 172 230 138 c 0,12,13
 230 104 230 104 208 80 c 0,14,15
 187 55 187 55 156 55 c 0,0,1
156 332 m 0,16,17
 125 332 125 332 103 357 c 256,18,19
 81 382 81 382 81 415 c 0,20,21
 81 450 81 450 103 474 c 256,22,23
 125 499 125 499 156 499 c 0,24,25
 187 499 187 499 208 474 c 0,26,27
 230 449 230 449 230 415 c 0,28,29
 230 381 230 381 208 357 c 0,30,31
 187 332 187 332 156 332 c 0,16,17
0 1108 m 5,32,-1
 0 1247 l 5,33,-1
 311 1247 l 1,34,-1
 311 1108 l 1,35,-1
 0 1108 l 5,32,-1
EndSplineSet
EndChar

StartChar: oaomo_c_end
Encoding: 85 -1 85
Width: 311
VWidth: 1187
GlyphClass: 2
Flags: W
HStem: 194 167<103 209> 1108 139<0 311>
VStem: 81 150<219 339>
LayerCount: 2
Fore
SplineSet
156 194 m 0,0,1
 125 194 125 194 103 218 c 256,2,3
 81 243 81 243 81 277 c 0,4,5
 81 312 81 312 103 336 c 256,6,7
 125 361 125 361 156 360 c 0,8,9
 187 360 187 360 208 336 c 0,10,11
 230 311 230 311 230 277 c 0,12,13
 230 243 230 243 208 218 c 0,14,15
 187 194 187 194 156 194 c 0,0,1
0 1108 m 5,16,-1
 0 1247 l 5,17,-1
 311 1247 l 1,18,-1
 311 1108 l 1,19,-1
 0 1108 l 5,16,-1
EndSplineSet
EndChar

StartChar: quote_c_end
Encoding: 86 -1 86
Width: 498
VWidth: 1187
GlyphClass: 2
Flags: W
HStem: 0 7G<243 256> 1108 139<0 499>
LayerCount: 2
Fore
SplineSet
249 0 m 1,0,-1
 125 138 l 1,1,-1
 249 277 l 1,2,-1
 374 138 l 1,3,-1
 249 0 l 1,0,-1
249 277 m 1,4,-1
 125 415 l 1,5,-1
 249 554 l 1,6,-1
 374 415 l 1,7,-1
 249 277 l 1,4,-1
0 1108 m 5,8,-1
 0 1247 l 5,9,-1
 499 1247 l 1,10,-1
 499 1108 l 1,11,-1
 0 1108 l 5,8,-1
EndSplineSet
EndChar
